G75*
%MOIN*%
%OFA0B0*%
%FSLAX25Y25*%
%IPPOS*%
%LPD*%
%AMOC8*
5,1,8,0,0,1.08239X$1,22.5*
%
%ADD10C,0.01600*%
%ADD11C,0.00400*%
%ADD12C,0.00300*%
%ADD13R,0.30512X0.05906*%
%ADD14R,0.08858X0.02953*%
%ADD15C,0.00787*%
%ADD16C,0.00800*%
%ADD17C,0.00600*%
%ADD18C,0.00200*%
%ADD19C,0.00500*%
%ADD20C,0.00039*%
%ADD21C,0.00295*%
%ADD22R,0.05000X0.40000*%
D10*
X0001800Y0007909D02*
X0212430Y0007909D01*
X0212430Y0131925D01*
X0001800Y0131925D01*
X0001800Y0007909D01*
X0194564Y0015980D02*
X0200076Y0015980D01*
X0197320Y0023736D01*
X0194564Y0015980D01*
X0197020Y0121960D02*
X0191509Y0121960D01*
X0194265Y0126173D01*
X0197020Y0121960D01*
D11*
X0133686Y0049297D02*
X0131817Y0049297D01*
X0131817Y0047896D01*
X0132751Y0048363D01*
X0133218Y0048363D01*
X0133686Y0047896D01*
X0133686Y0046962D01*
X0133218Y0046495D01*
X0132284Y0046495D01*
X0131817Y0046962D01*
X0130811Y0046962D02*
X0130811Y0046495D01*
X0130344Y0046495D01*
X0130344Y0046962D01*
X0130811Y0046962D01*
X0129266Y0046495D02*
X0127398Y0046495D01*
X0129266Y0048363D01*
X0129266Y0048830D01*
X0128799Y0049297D01*
X0127865Y0049297D01*
X0127398Y0048830D01*
X0126319Y0049297D02*
X0126319Y0047429D01*
X0125385Y0046495D01*
X0124451Y0047429D01*
X0124451Y0049297D01*
X0120450Y0048363D02*
X0119983Y0048363D01*
X0119049Y0047429D01*
X0119049Y0046495D02*
X0119049Y0048363D01*
X0117971Y0047896D02*
X0117971Y0046962D01*
X0117504Y0046495D01*
X0116570Y0046495D01*
X0116103Y0046962D01*
X0116103Y0047896D01*
X0116570Y0048363D01*
X0117504Y0048363D01*
X0117971Y0047896D01*
X0115072Y0048363D02*
X0114138Y0048363D01*
X0114605Y0048830D02*
X0114605Y0046962D01*
X0115072Y0046495D01*
X0113060Y0046962D02*
X0112593Y0046495D01*
X0111192Y0046495D01*
X0111192Y0045561D02*
X0111192Y0048363D01*
X0112593Y0048363D01*
X0113060Y0047896D01*
X0113060Y0046962D01*
X0110113Y0046495D02*
X0110113Y0047896D01*
X0109646Y0048363D01*
X0108712Y0048363D01*
X0108712Y0047429D02*
X0110113Y0047429D01*
X0110113Y0046495D02*
X0108712Y0046495D01*
X0108245Y0046962D01*
X0108712Y0047429D01*
X0107167Y0046495D02*
X0105766Y0046495D01*
X0105299Y0046962D01*
X0105299Y0047896D01*
X0105766Y0048363D01*
X0107167Y0048363D01*
X0107167Y0049297D02*
X0107167Y0046495D01*
X0104220Y0046495D02*
X0102819Y0046495D01*
X0102352Y0046962D01*
X0102819Y0047429D01*
X0104220Y0047429D01*
X0104220Y0047896D02*
X0104220Y0046495D01*
X0104220Y0047896D02*
X0103753Y0048363D01*
X0102819Y0048363D01*
X0098327Y0048363D02*
X0098327Y0046028D01*
X0097860Y0045561D01*
X0097393Y0045561D01*
X0096926Y0046495D02*
X0098327Y0046495D01*
X0096926Y0046495D02*
X0096459Y0046962D01*
X0096459Y0048363D01*
X0095381Y0047896D02*
X0095381Y0046962D01*
X0094914Y0046495D01*
X0093513Y0046495D01*
X0093513Y0045561D02*
X0093513Y0048363D01*
X0094914Y0048363D01*
X0095381Y0047896D01*
X0092434Y0047896D02*
X0092434Y0046962D01*
X0091967Y0046495D01*
X0090566Y0046495D01*
X0090566Y0045561D02*
X0090566Y0048363D01*
X0091967Y0048363D01*
X0092434Y0047896D01*
X0089488Y0047896D02*
X0089488Y0046962D01*
X0089021Y0046495D01*
X0088087Y0046495D01*
X0087620Y0046962D01*
X0087620Y0047896D01*
X0088087Y0048363D01*
X0089021Y0048363D01*
X0089488Y0047896D01*
X0086589Y0046495D02*
X0085655Y0046495D01*
X0086122Y0046495D02*
X0086122Y0049297D01*
X0085655Y0049297D01*
X0084577Y0049297D02*
X0082709Y0049297D01*
X0082709Y0046495D01*
X0082709Y0047896D02*
X0083643Y0047896D01*
X0009474Y0034568D02*
X0009474Y0033634D01*
X0009007Y0033167D01*
X0008073Y0033167D01*
X0007606Y0033634D01*
X0007606Y0034568D01*
X0008073Y0035035D01*
X0008540Y0035035D01*
X0008540Y0033167D01*
X0007606Y0032089D02*
X0009474Y0031155D01*
X0007606Y0030220D01*
X0007606Y0028723D02*
X0009474Y0028723D01*
X0009474Y0028256D02*
X0009474Y0029190D01*
X0007606Y0028723D02*
X0007606Y0028256D01*
X0006672Y0028723D02*
X0006205Y0028723D01*
X0007606Y0027202D02*
X0007606Y0026735D01*
X0008540Y0025801D01*
X0009474Y0025801D02*
X0007606Y0025801D01*
X0007606Y0024722D02*
X0007606Y0023321D01*
X0008073Y0022854D01*
X0009007Y0022854D01*
X0009474Y0023321D01*
X0009474Y0024722D01*
X0006672Y0024722D01*
X0007139Y0018829D02*
X0006672Y0018362D01*
X0006672Y0017428D01*
X0007139Y0016961D01*
X0009007Y0016961D01*
X0009474Y0017428D01*
X0009474Y0018362D01*
X0009007Y0018829D01*
X0008073Y0015883D02*
X0008540Y0015416D01*
X0008540Y0014015D01*
X0009474Y0014015D02*
X0006672Y0014015D01*
X0006672Y0015416D01*
X0007139Y0015883D01*
X0008073Y0015883D01*
D12*
X0082659Y0036602D02*
X0084110Y0036602D01*
X0084594Y0037086D01*
X0084594Y0037570D01*
X0084110Y0038054D01*
X0082659Y0038054D01*
X0084110Y0038054D02*
X0084594Y0038537D01*
X0084594Y0039021D01*
X0084110Y0039505D01*
X0082659Y0039505D01*
X0082659Y0036602D01*
X0085605Y0037086D02*
X0085605Y0038537D01*
X0085605Y0037086D02*
X0086089Y0036602D01*
X0087540Y0036602D01*
X0087540Y0036119D02*
X0087056Y0035635D01*
X0086573Y0035635D01*
X0087540Y0036119D02*
X0087540Y0038537D01*
X0091498Y0039505D02*
X0092466Y0039505D01*
X0091982Y0039505D02*
X0091982Y0036602D01*
X0091498Y0036602D02*
X0092466Y0036602D01*
X0093463Y0037086D02*
X0093946Y0037570D01*
X0095398Y0037570D01*
X0095398Y0038054D02*
X0095398Y0036602D01*
X0093946Y0036602D01*
X0093463Y0037086D01*
X0093946Y0038537D02*
X0094914Y0038537D01*
X0095398Y0038054D01*
X0096409Y0038537D02*
X0096409Y0036602D01*
X0098344Y0036602D02*
X0098344Y0038054D01*
X0097860Y0038537D01*
X0096409Y0038537D01*
X0102302Y0038537D02*
X0102786Y0038054D01*
X0103753Y0038054D01*
X0104237Y0037570D01*
X0104237Y0037086D01*
X0103753Y0036602D01*
X0102786Y0036602D01*
X0102302Y0037086D01*
X0102302Y0038537D02*
X0102302Y0039021D01*
X0102786Y0039505D01*
X0103753Y0039505D01*
X0104237Y0039021D01*
X0105249Y0038537D02*
X0106216Y0038537D01*
X0105732Y0039021D02*
X0105732Y0037086D01*
X0106216Y0036602D01*
X0107213Y0037086D02*
X0107213Y0038054D01*
X0107697Y0038537D01*
X0108664Y0038537D01*
X0109148Y0038054D01*
X0109148Y0037570D01*
X0107213Y0037570D01*
X0107213Y0037086D02*
X0107697Y0036602D01*
X0108664Y0036602D01*
X0110159Y0037086D02*
X0110159Y0038054D01*
X0110643Y0038537D01*
X0112094Y0038537D01*
X0112094Y0039505D02*
X0112094Y0036602D01*
X0110643Y0036602D01*
X0110159Y0037086D01*
X0113106Y0036602D02*
X0113106Y0038537D01*
X0113590Y0038537D01*
X0114073Y0038054D01*
X0114557Y0038537D01*
X0115041Y0038054D01*
X0115041Y0036602D01*
X0114073Y0036602D02*
X0114073Y0038054D01*
X0116053Y0037086D02*
X0116536Y0037570D01*
X0117988Y0037570D01*
X0117988Y0038054D02*
X0117988Y0036602D01*
X0116536Y0036602D01*
X0116053Y0037086D01*
X0116536Y0038537D02*
X0117504Y0038537D01*
X0117988Y0038054D01*
X0118999Y0038537D02*
X0118999Y0036602D01*
X0120934Y0036602D02*
X0120934Y0038054D01*
X0120450Y0038537D01*
X0118999Y0038537D01*
X0102764Y0043475D02*
X0100829Y0043475D01*
X0100829Y0044443D02*
X0102280Y0044443D01*
X0102764Y0044443D01*
X0102280Y0045410D02*
X0102280Y0042508D01*
X0101313Y0042508D02*
X0101313Y0045410D01*
X0096402Y0045410D02*
X0096402Y0042508D01*
X0096885Y0042508D02*
X0095918Y0042508D01*
X0094906Y0042508D02*
X0094906Y0043959D01*
X0094423Y0044443D01*
X0093455Y0044443D01*
X0093455Y0043475D02*
X0094906Y0043475D01*
X0094906Y0042508D02*
X0093455Y0042508D01*
X0092971Y0042992D01*
X0093455Y0043475D01*
X0091975Y0042508D02*
X0091007Y0042508D01*
X0091491Y0042508D02*
X0091491Y0044443D01*
X0091007Y0044443D01*
X0090003Y0044443D02*
X0089519Y0044443D01*
X0088552Y0043475D01*
X0088552Y0042508D02*
X0088552Y0044443D01*
X0087540Y0043959D02*
X0087540Y0043475D01*
X0085605Y0043475D01*
X0085605Y0042992D02*
X0085605Y0043959D01*
X0086089Y0044443D01*
X0087056Y0044443D01*
X0087540Y0043959D01*
X0087056Y0042508D02*
X0086089Y0042508D01*
X0085605Y0042992D01*
X0084594Y0042992D02*
X0084110Y0042508D01*
X0083142Y0042508D01*
X0082659Y0042992D01*
X0083142Y0043959D02*
X0084110Y0043959D01*
X0084594Y0043475D01*
X0084594Y0042992D01*
X0083142Y0043959D02*
X0082659Y0044443D01*
X0082659Y0044927D01*
X0083142Y0045410D01*
X0084110Y0045410D01*
X0084594Y0044927D01*
X0091491Y0045410D02*
X0091491Y0045894D01*
X0095918Y0045410D02*
X0096402Y0045410D01*
X0148044Y0045391D02*
X0150462Y0045391D01*
X0150946Y0044908D01*
X0150946Y0044424D01*
X0150462Y0043940D01*
X0148044Y0044908D02*
X0148044Y0045875D01*
X0148044Y0046887D02*
X0148044Y0048338D01*
X0148527Y0048822D01*
X0149495Y0048822D01*
X0149979Y0048338D01*
X0149979Y0046887D01*
X0150946Y0046887D02*
X0148044Y0046887D01*
X0149011Y0049833D02*
X0148044Y0050801D01*
X0150946Y0050801D01*
X0150946Y0051768D02*
X0150946Y0049833D01*
X0157462Y0040489D02*
X0158429Y0040489D01*
X0157946Y0040489D02*
X0157946Y0037587D01*
X0158429Y0037587D02*
X0157462Y0037587D01*
X0159426Y0037587D02*
X0159426Y0040489D01*
X0161361Y0037587D01*
X0161361Y0040489D01*
X0162373Y0040489D02*
X0164308Y0040489D01*
X0163340Y0040489D02*
X0163340Y0037587D01*
X0171212Y0037587D02*
X0173147Y0037587D01*
X0174159Y0037587D02*
X0176094Y0040489D01*
X0177105Y0040489D02*
X0179040Y0040489D01*
X0178073Y0040489D02*
X0178073Y0037587D01*
X0176094Y0037587D02*
X0174159Y0040489D01*
X0173147Y0040489D02*
X0171212Y0040489D01*
X0171212Y0037587D01*
X0171212Y0039038D02*
X0172180Y0039038D01*
X0204456Y0023277D02*
X0204940Y0023761D01*
X0205424Y0023761D01*
X0207359Y0021826D01*
X0207359Y0023761D01*
X0204456Y0023277D02*
X0204456Y0022310D01*
X0204940Y0021826D01*
X0204456Y0020815D02*
X0206391Y0018880D01*
X0205907Y0019363D02*
X0207359Y0020815D01*
X0207359Y0018880D02*
X0204456Y0018880D01*
X0204940Y0017868D02*
X0204456Y0017384D01*
X0204456Y0016417D01*
X0204940Y0015933D01*
X0205424Y0015933D01*
X0205907Y0016417D01*
X0205907Y0017384D01*
X0206391Y0017868D01*
X0206875Y0017868D01*
X0207359Y0017384D01*
X0207359Y0016417D01*
X0206875Y0015933D01*
X0201941Y0071987D02*
X0199038Y0071987D01*
X0199038Y0073439D01*
X0199522Y0073922D01*
X0200489Y0073922D01*
X0200973Y0073439D01*
X0200973Y0071987D01*
X0200973Y0072955D02*
X0201941Y0073922D01*
X0201941Y0074934D02*
X0199038Y0074934D01*
X0199038Y0076385D01*
X0199522Y0076869D01*
X0201457Y0076869D01*
X0201941Y0076385D01*
X0201941Y0074934D01*
X0199522Y0077880D02*
X0200489Y0078848D01*
X0201941Y0078848D01*
X0200489Y0078848D02*
X0199522Y0079815D01*
X0199038Y0079815D01*
X0199038Y0077880D02*
X0199522Y0077880D01*
X0184490Y0083847D02*
X0183523Y0083847D01*
X0184006Y0083847D02*
X0184006Y0085782D01*
X0183523Y0085782D01*
X0182518Y0085782D02*
X0182035Y0085782D01*
X0181067Y0084814D01*
X0181067Y0083847D02*
X0181067Y0085782D01*
X0180056Y0085298D02*
X0180056Y0083847D01*
X0178604Y0083847D01*
X0178121Y0084330D01*
X0178604Y0084814D01*
X0180056Y0084814D01*
X0180056Y0085298D02*
X0179572Y0085782D01*
X0178604Y0085782D01*
X0177124Y0085782D02*
X0176156Y0085782D01*
X0176640Y0086265D02*
X0176640Y0084330D01*
X0177124Y0083847D01*
X0175145Y0083847D02*
X0175145Y0085782D01*
X0174177Y0086749D01*
X0173210Y0085782D01*
X0173210Y0083847D01*
X0173210Y0085298D02*
X0175145Y0085298D01*
X0182035Y0087800D02*
X0182518Y0087800D01*
X0183002Y0088284D01*
X0183002Y0090703D01*
X0181551Y0090703D01*
X0181067Y0090219D01*
X0181067Y0089252D01*
X0181551Y0088768D01*
X0183002Y0088768D01*
X0184014Y0089252D02*
X0184497Y0089735D01*
X0185949Y0089735D01*
X0185949Y0090219D02*
X0185949Y0088768D01*
X0184497Y0088768D01*
X0184014Y0089252D01*
X0184497Y0090703D02*
X0185465Y0090703D01*
X0185949Y0090219D01*
X0185953Y0093689D02*
X0185953Y0095624D01*
X0185953Y0094657D02*
X0186921Y0095624D01*
X0187404Y0095624D01*
X0188409Y0095624D02*
X0188892Y0095624D01*
X0188892Y0093689D01*
X0188409Y0093689D02*
X0189376Y0093689D01*
X0193319Y0094173D02*
X0193319Y0095140D01*
X0193803Y0095624D01*
X0195254Y0095624D01*
X0196750Y0095624D02*
X0197717Y0095624D01*
X0198201Y0095140D01*
X0198201Y0093689D01*
X0196750Y0093689D01*
X0196266Y0094173D01*
X0196750Y0094657D01*
X0198201Y0094657D01*
X0199212Y0095624D02*
X0200664Y0095624D01*
X0201147Y0095140D01*
X0201147Y0094173D01*
X0200664Y0093689D01*
X0199212Y0093689D01*
X0199212Y0096592D01*
X0202159Y0096592D02*
X0202643Y0096592D01*
X0202643Y0093689D01*
X0203126Y0093689D02*
X0202159Y0093689D01*
X0204123Y0094173D02*
X0204123Y0095140D01*
X0204607Y0095624D01*
X0205575Y0095624D01*
X0206058Y0095140D01*
X0206058Y0094657D01*
X0204123Y0094657D01*
X0204123Y0094173D02*
X0204607Y0093689D01*
X0205575Y0093689D01*
X0195254Y0093689D02*
X0193803Y0093689D01*
X0193319Y0094173D01*
X0188892Y0096592D02*
X0188892Y0097075D01*
X0184942Y0095140D02*
X0184942Y0093689D01*
X0183490Y0093689D01*
X0183007Y0094173D01*
X0183490Y0094657D01*
X0184942Y0094657D01*
X0184942Y0095140D02*
X0184458Y0095624D01*
X0183490Y0095624D01*
X0182010Y0095624D02*
X0181042Y0095624D01*
X0181526Y0096108D02*
X0181526Y0094173D01*
X0182010Y0093689D01*
X0180031Y0093689D02*
X0180031Y0095624D01*
X0179063Y0096592D01*
X0178096Y0095624D01*
X0178096Y0093689D01*
X0178096Y0095140D02*
X0180031Y0095140D01*
X0177084Y0096592D02*
X0175149Y0093689D01*
X0174138Y0093689D02*
X0174138Y0095140D01*
X0173654Y0095624D01*
X0172686Y0095624D01*
X0172686Y0094657D02*
X0174138Y0094657D01*
X0174138Y0093689D02*
X0172686Y0093689D01*
X0172203Y0094173D01*
X0172686Y0094657D01*
X0171191Y0095624D02*
X0171191Y0093205D01*
X0170707Y0092722D01*
X0170224Y0092722D01*
X0169740Y0093689D02*
X0171191Y0093689D01*
X0169740Y0093689D02*
X0169256Y0094173D01*
X0169256Y0095140D01*
X0169740Y0095624D01*
X0171191Y0095624D01*
X0167776Y0095624D02*
X0167776Y0093689D01*
X0168259Y0093689D02*
X0167292Y0093689D01*
X0166280Y0093689D02*
X0166280Y0095140D01*
X0165797Y0095624D01*
X0165313Y0095140D01*
X0165313Y0093689D01*
X0164345Y0093689D02*
X0164345Y0095624D01*
X0164829Y0095624D01*
X0165313Y0095140D01*
X0163334Y0095140D02*
X0161399Y0095140D01*
X0161399Y0095624D02*
X0162366Y0096592D01*
X0163334Y0095624D01*
X0163334Y0093689D01*
X0161399Y0093689D02*
X0161399Y0095624D01*
X0167292Y0095624D02*
X0167776Y0095624D01*
X0167776Y0096592D02*
X0167776Y0097075D01*
X0173210Y0090703D02*
X0174177Y0091670D01*
X0175145Y0090703D01*
X0175145Y0088768D01*
X0176156Y0088768D02*
X0176156Y0090703D01*
X0176640Y0090703D01*
X0177124Y0090219D01*
X0177608Y0090703D01*
X0178091Y0090219D01*
X0178091Y0088768D01*
X0177124Y0088768D02*
X0177124Y0090219D01*
X0175145Y0090219D02*
X0173210Y0090219D01*
X0173210Y0090703D02*
X0173210Y0088768D01*
X0179103Y0088768D02*
X0180070Y0088768D01*
X0179587Y0088768D02*
X0179587Y0090703D01*
X0179103Y0090703D01*
X0179587Y0091670D02*
X0179587Y0092154D01*
X0184006Y0087233D02*
X0184006Y0086749D01*
X0156943Y0078892D02*
X0156943Y0078408D01*
X0156459Y0078408D01*
X0156459Y0078892D01*
X0156943Y0078892D01*
X0156943Y0077441D02*
X0156943Y0076957D01*
X0156459Y0076957D01*
X0156459Y0077441D01*
X0156943Y0077441D01*
X0155447Y0077441D02*
X0154964Y0076957D01*
X0153996Y0076957D01*
X0153512Y0077441D01*
X0155447Y0079376D01*
X0155447Y0077441D01*
X0153512Y0077441D02*
X0153512Y0079376D01*
X0153996Y0079859D01*
X0154964Y0079859D01*
X0155447Y0079376D01*
X0152501Y0079859D02*
X0150566Y0079859D01*
X0150566Y0076957D01*
X0149554Y0077441D02*
X0149554Y0079376D01*
X0149071Y0079859D01*
X0147619Y0079859D01*
X0147619Y0076957D01*
X0149071Y0076957D01*
X0149554Y0077441D01*
X0150566Y0078408D02*
X0151533Y0078408D01*
X0139817Y0078802D02*
X0139333Y0078802D01*
X0139333Y0079285D01*
X0139817Y0079285D01*
X0139817Y0078802D01*
X0139817Y0077834D02*
X0139817Y0077350D01*
X0139333Y0077350D01*
X0139333Y0077834D01*
X0139817Y0077834D01*
X0138321Y0077350D02*
X0136386Y0077350D01*
X0137354Y0077350D02*
X0137354Y0080253D01*
X0136386Y0079285D01*
X0135375Y0080253D02*
X0133440Y0080253D01*
X0133440Y0077350D01*
X0132428Y0077834D02*
X0132428Y0079769D01*
X0131945Y0080253D01*
X0130493Y0080253D01*
X0130493Y0077350D01*
X0131945Y0077350D01*
X0132428Y0077834D01*
X0133440Y0078802D02*
X0134407Y0078802D01*
X0127162Y0084922D02*
X0126678Y0084438D01*
X0127162Y0084922D02*
X0127162Y0085889D01*
X0126678Y0086373D01*
X0126194Y0086373D01*
X0125711Y0085889D01*
X0125711Y0084922D01*
X0125227Y0084438D01*
X0124743Y0084438D01*
X0124259Y0084922D01*
X0124259Y0085889D01*
X0124743Y0086373D01*
X0124259Y0088352D02*
X0124259Y0089319D01*
X0124259Y0088836D02*
X0126678Y0088836D01*
X0127162Y0088352D01*
X0127162Y0087868D01*
X0126678Y0087384D01*
X0127162Y0090331D02*
X0125227Y0092266D01*
X0124743Y0092266D01*
X0124259Y0091782D01*
X0124259Y0090815D01*
X0124743Y0090331D01*
X0127162Y0090331D02*
X0127162Y0092266D01*
X0008540Y0092665D02*
X0007089Y0091214D01*
X0007572Y0090730D02*
X0005637Y0092665D01*
X0006605Y0093677D02*
X0005637Y0094644D01*
X0008540Y0094644D01*
X0008540Y0093677D02*
X0008540Y0095612D01*
X0008540Y0090730D02*
X0005637Y0090730D01*
X0006121Y0089719D02*
X0005637Y0089235D01*
X0005637Y0088267D01*
X0006121Y0087784D01*
X0006605Y0087784D01*
X0007089Y0088267D01*
X0007089Y0089235D01*
X0007572Y0089719D01*
X0008056Y0089719D01*
X0008540Y0089235D01*
X0008540Y0088267D01*
X0008056Y0087784D01*
D13*
X0119418Y0042358D03*
D14*
X0192253Y0085173D03*
X0192253Y0090094D03*
D15*
X0159280Y0081728D02*
X0159280Y0078775D01*
X0158296Y0078775D01*
X0146485Y0078775D02*
X0143532Y0078775D01*
X0143532Y0079760D01*
X0143532Y0078775D02*
X0140580Y0078775D01*
X0129753Y0078775D02*
X0128769Y0078775D01*
X0128769Y0081728D01*
X0155343Y0041374D02*
X0155343Y0039405D01*
X0156328Y0039405D01*
X0165186Y0039405D02*
X0168139Y0039405D01*
X0170107Y0039405D01*
X0168139Y0039405D02*
X0168139Y0041374D01*
X0179950Y0039405D02*
X0182902Y0039405D01*
X0182902Y0041374D01*
D16*
X0202202Y0035311D02*
X0017280Y0035311D01*
X0017241Y0035350D02*
X0017241Y0021531D01*
X0017044Y0021137D02*
X0017044Y0013460D01*
X0202438Y0013460D01*
X0202438Y0021531D01*
X0202241Y0021531D01*
X0202241Y0035074D01*
X0095920Y0078120D02*
X0094045Y0078120D01*
X0095920Y0078120D02*
X0095920Y0079995D01*
X0090295Y0078120D02*
X0088420Y0078120D01*
X0088420Y0079995D01*
X0085093Y0080097D02*
X0085093Y0078222D01*
X0083219Y0078222D01*
X0079468Y0078222D02*
X0077593Y0078222D01*
X0077593Y0080097D01*
X0077593Y0083847D02*
X0077593Y0085722D01*
X0079468Y0085722D01*
X0083219Y0085722D02*
X0085093Y0085722D01*
X0085093Y0083847D01*
X0088420Y0083745D02*
X0088420Y0085620D01*
X0090295Y0085620D01*
X0094045Y0085620D02*
X0095920Y0085620D01*
X0095920Y0083745D01*
X0100013Y0127196D02*
X0010446Y0127196D01*
X0007296Y0130346D01*
X0007296Y0098062D01*
X0010446Y0101212D01*
X0010446Y0127196D01*
X0007296Y0130346D02*
X0207690Y0130346D01*
X0204540Y0127196D01*
X0114973Y0127196D01*
X0114973Y0127275D02*
X0114973Y0130070D01*
X0100013Y0130070D02*
X0100013Y0127275D01*
X0010446Y0101212D02*
X0204540Y0101212D01*
X0207690Y0098062D01*
X0007296Y0098062D01*
X0204540Y0101212D02*
X0204540Y0127196D01*
X0207690Y0130346D02*
X0207690Y0098062D01*
D17*
X0196300Y0081582D02*
X0194300Y0081582D01*
X0196300Y0081582D02*
X0196300Y0079582D01*
X0189300Y0081582D02*
X0187300Y0081582D01*
X0187300Y0079582D01*
X0187300Y0074582D02*
X0187300Y0072582D01*
X0189300Y0072582D01*
X0194300Y0072582D02*
X0196300Y0072582D01*
X0196300Y0074582D01*
X0193729Y0058500D02*
X0199635Y0058500D01*
X0199634Y0058500D02*
X0199697Y0058492D01*
X0199759Y0058481D01*
X0199821Y0058466D01*
X0199881Y0058448D01*
X0199941Y0058426D01*
X0199999Y0058401D01*
X0200055Y0058372D01*
X0200110Y0058340D01*
X0200162Y0058305D01*
X0200213Y0058267D01*
X0200261Y0058227D01*
X0200307Y0058183D01*
X0200350Y0058137D01*
X0200391Y0058088D01*
X0200429Y0058037D01*
X0200463Y0057985D01*
X0200495Y0057930D01*
X0200523Y0057873D01*
X0200548Y0057815D01*
X0200569Y0057755D01*
X0200587Y0057695D01*
X0200601Y0057633D01*
X0200612Y0057571D01*
X0200619Y0057508D01*
X0200623Y0057445D01*
X0200622Y0057382D01*
X0200619Y0057319D01*
X0200619Y0051019D01*
X0200618Y0051019D02*
X0200622Y0050956D01*
X0200623Y0050893D01*
X0200619Y0050830D01*
X0200612Y0050767D01*
X0200601Y0050705D01*
X0200587Y0050643D01*
X0200569Y0050582D01*
X0200548Y0050523D01*
X0200523Y0050465D01*
X0200495Y0050408D01*
X0200463Y0050353D01*
X0200429Y0050300D01*
X0200391Y0050249D01*
X0200351Y0050201D01*
X0200307Y0050155D01*
X0200262Y0050111D01*
X0200213Y0050070D01*
X0200163Y0050032D01*
X0200110Y0049997D01*
X0200055Y0049966D01*
X0199999Y0049937D01*
X0199941Y0049912D01*
X0199881Y0049890D01*
X0199821Y0049872D01*
X0199759Y0049857D01*
X0199697Y0049846D01*
X0199634Y0049838D01*
X0199635Y0049838D02*
X0193729Y0049838D01*
X0193730Y0049838D02*
X0193664Y0049846D01*
X0193600Y0049858D01*
X0193536Y0049874D01*
X0193473Y0049893D01*
X0193412Y0049917D01*
X0193352Y0049944D01*
X0193294Y0049974D01*
X0193238Y0050008D01*
X0193184Y0050045D01*
X0193132Y0050086D01*
X0193083Y0050130D01*
X0193036Y0050176D01*
X0192993Y0050225D01*
X0192952Y0050277D01*
X0192915Y0050331D01*
X0192881Y0050387D01*
X0192851Y0050445D01*
X0192824Y0050505D01*
X0192800Y0050566D01*
X0192781Y0050629D01*
X0192765Y0050693D01*
X0192753Y0050757D01*
X0192745Y0050823D01*
X0192741Y0050888D01*
X0192741Y0050954D01*
X0192745Y0051019D01*
X0192745Y0057319D01*
X0192741Y0057384D01*
X0192741Y0057450D01*
X0192745Y0057515D01*
X0192753Y0057581D01*
X0192765Y0057645D01*
X0192781Y0057709D01*
X0192800Y0057772D01*
X0192824Y0057833D01*
X0192851Y0057893D01*
X0192881Y0057951D01*
X0192915Y0058007D01*
X0192952Y0058061D01*
X0192993Y0058113D01*
X0193036Y0058162D01*
X0193083Y0058208D01*
X0193132Y0058252D01*
X0193184Y0058293D01*
X0193238Y0058330D01*
X0193294Y0058364D01*
X0193352Y0058394D01*
X0193412Y0058421D01*
X0193473Y0058445D01*
X0193536Y0058464D01*
X0193600Y0058480D01*
X0193664Y0058492D01*
X0193730Y0058500D01*
X0183139Y0050763D02*
X0180639Y0053263D01*
X0175639Y0053263D01*
X0173139Y0050763D01*
X0173139Y0045763D01*
X0175639Y0043263D01*
X0180639Y0043263D01*
X0183139Y0045763D01*
X0183139Y0050763D01*
X0173139Y0050763D02*
X0170639Y0053263D01*
X0165639Y0053263D01*
X0163139Y0050763D01*
X0163139Y0045763D01*
X0165639Y0043263D01*
X0170639Y0043263D01*
X0173139Y0045763D01*
X0163139Y0045763D02*
X0160639Y0043263D01*
X0155639Y0043263D01*
X0153139Y0045763D01*
X0153139Y0050763D01*
X0155639Y0053263D01*
X0160639Y0053263D01*
X0163139Y0050763D01*
X0156623Y0082023D02*
X0151623Y0082023D01*
X0149123Y0084523D01*
X0146623Y0082023D01*
X0141623Y0082023D01*
X0139123Y0084523D01*
X0136623Y0082023D01*
X0131623Y0082023D01*
X0129123Y0084523D01*
X0129123Y0089523D01*
X0131623Y0092023D01*
X0136623Y0092023D01*
X0139123Y0089523D01*
X0141623Y0092023D01*
X0146623Y0092023D01*
X0149123Y0089523D01*
X0151623Y0092023D01*
X0156623Y0092023D01*
X0159123Y0089523D01*
X0159123Y0084523D01*
X0156623Y0082023D01*
X0149123Y0084523D02*
X0149123Y0089523D01*
X0139123Y0089523D02*
X0139123Y0084523D01*
X0123060Y0085074D02*
X0123060Y0091374D01*
X0123063Y0091437D01*
X0123064Y0091500D01*
X0123060Y0091563D01*
X0123053Y0091626D01*
X0123042Y0091688D01*
X0123028Y0091750D01*
X0123010Y0091810D01*
X0122989Y0091870D01*
X0122964Y0091928D01*
X0122936Y0091985D01*
X0122904Y0092040D01*
X0122870Y0092092D01*
X0122832Y0092143D01*
X0122791Y0092192D01*
X0122748Y0092238D01*
X0122702Y0092282D01*
X0122654Y0092322D01*
X0122603Y0092360D01*
X0122551Y0092395D01*
X0122496Y0092427D01*
X0122440Y0092456D01*
X0122382Y0092481D01*
X0122322Y0092503D01*
X0122262Y0092521D01*
X0122200Y0092536D01*
X0122138Y0092547D01*
X0122075Y0092555D01*
X0122076Y0092555D02*
X0116170Y0092555D01*
X0116171Y0092555D02*
X0116105Y0092547D01*
X0116041Y0092535D01*
X0115977Y0092519D01*
X0115914Y0092500D01*
X0115853Y0092476D01*
X0115793Y0092449D01*
X0115735Y0092419D01*
X0115679Y0092385D01*
X0115625Y0092348D01*
X0115573Y0092307D01*
X0115524Y0092263D01*
X0115477Y0092217D01*
X0115434Y0092168D01*
X0115393Y0092116D01*
X0115356Y0092062D01*
X0115322Y0092006D01*
X0115292Y0091948D01*
X0115265Y0091888D01*
X0115241Y0091827D01*
X0115222Y0091764D01*
X0115206Y0091700D01*
X0115194Y0091636D01*
X0115186Y0091570D01*
X0115182Y0091505D01*
X0115182Y0091439D01*
X0115186Y0091374D01*
X0115186Y0085074D01*
X0115182Y0085009D01*
X0115182Y0084943D01*
X0115186Y0084878D01*
X0115194Y0084812D01*
X0115206Y0084748D01*
X0115222Y0084684D01*
X0115241Y0084621D01*
X0115265Y0084560D01*
X0115292Y0084500D01*
X0115322Y0084442D01*
X0115356Y0084386D01*
X0115393Y0084332D01*
X0115434Y0084280D01*
X0115477Y0084231D01*
X0115524Y0084185D01*
X0115573Y0084141D01*
X0115625Y0084100D01*
X0115679Y0084063D01*
X0115735Y0084029D01*
X0115793Y0083999D01*
X0115853Y0083972D01*
X0115914Y0083948D01*
X0115977Y0083929D01*
X0116041Y0083913D01*
X0116105Y0083901D01*
X0116171Y0083893D01*
X0116170Y0083893D02*
X0122076Y0083893D01*
X0122075Y0083893D02*
X0122138Y0083901D01*
X0122200Y0083912D01*
X0122262Y0083927D01*
X0122322Y0083945D01*
X0122382Y0083967D01*
X0122440Y0083992D01*
X0122496Y0084021D01*
X0122551Y0084052D01*
X0122604Y0084087D01*
X0122654Y0084125D01*
X0122703Y0084166D01*
X0122748Y0084210D01*
X0122792Y0084256D01*
X0122832Y0084304D01*
X0122870Y0084355D01*
X0122904Y0084408D01*
X0122936Y0084463D01*
X0122964Y0084520D01*
X0122989Y0084578D01*
X0123010Y0084637D01*
X0123028Y0084698D01*
X0123042Y0084760D01*
X0123053Y0084822D01*
X0123060Y0084885D01*
X0123064Y0084948D01*
X0123063Y0085011D01*
X0123059Y0085074D01*
D18*
X0092046Y0076821D02*
X0092046Y0075353D01*
X0091312Y0074619D01*
X0090578Y0075353D01*
X0090578Y0076821D01*
X0089836Y0076821D02*
X0088368Y0076821D01*
X0088368Y0075720D01*
X0089102Y0076087D01*
X0089469Y0076087D01*
X0089836Y0075720D01*
X0089836Y0074986D01*
X0089469Y0074619D01*
X0088735Y0074619D01*
X0088368Y0074986D01*
X0087626Y0075720D02*
X0086158Y0075720D01*
X0086892Y0076454D02*
X0086892Y0074986D01*
X0081662Y0075156D02*
X0080928Y0074423D01*
X0080195Y0075156D01*
X0080195Y0076624D01*
X0079453Y0076257D02*
X0077985Y0074790D01*
X0078352Y0074423D01*
X0079086Y0074423D01*
X0079453Y0074790D01*
X0079453Y0076257D01*
X0079086Y0076624D01*
X0078352Y0076624D01*
X0077985Y0076257D01*
X0077985Y0074790D01*
X0081662Y0075156D02*
X0081662Y0076624D01*
X0160191Y0086919D02*
X0160558Y0086552D01*
X0160925Y0086552D01*
X0161291Y0086919D01*
X0161291Y0088754D01*
X0160925Y0088754D02*
X0161658Y0088754D01*
X0162400Y0088754D02*
X0163501Y0088754D01*
X0163868Y0088387D01*
X0163868Y0087653D01*
X0163501Y0087286D01*
X0162400Y0087286D01*
X0162400Y0086552D02*
X0162400Y0088754D01*
X0164610Y0088387D02*
X0164977Y0088754D01*
X0165711Y0088754D01*
X0166078Y0088387D01*
X0166078Y0088020D01*
X0164610Y0086552D01*
X0166078Y0086552D01*
X0196227Y0049071D02*
X0195860Y0048704D01*
X0195860Y0048337D01*
X0196227Y0047970D01*
X0196961Y0047970D01*
X0197328Y0047603D01*
X0197328Y0047236D01*
X0196961Y0046869D01*
X0196227Y0046869D01*
X0195860Y0047236D01*
X0196227Y0049071D02*
X0196961Y0049071D01*
X0197328Y0048704D01*
X0198804Y0049071D02*
X0199538Y0049071D01*
X0199171Y0049071D02*
X0199171Y0047236D01*
X0198804Y0046869D01*
X0198437Y0046869D01*
X0198070Y0047236D01*
X0200280Y0046869D02*
X0201748Y0046869D01*
X0201014Y0046869D02*
X0201014Y0049071D01*
X0200280Y0048337D01*
D19*
X0176800Y0060980D02*
X0170501Y0060980D01*
X0153572Y0058421D02*
X0147272Y0058421D01*
X0126997Y0058421D02*
X0120698Y0058421D01*
X0120698Y0069602D02*
X0126997Y0069602D01*
X0147272Y0069602D02*
X0153572Y0069602D01*
X0170501Y0072161D02*
X0176800Y0072161D01*
X0087627Y0062712D02*
X0081328Y0062712D01*
X0081328Y0051531D02*
X0087627Y0051531D01*
X0067902Y0039090D02*
X0012902Y0039090D01*
X0012902Y0089090D01*
X0067902Y0089090D01*
X0067902Y0039090D01*
X0022241Y0019031D02*
X0019741Y0016531D01*
X0017241Y0019031D01*
X0022241Y0019031D01*
X0019741Y0016531D02*
X0019741Y0024031D01*
D20*
X0079359Y0057122D02*
X0079398Y0057122D01*
X0118729Y0064012D02*
X0118769Y0064012D01*
X0145304Y0064012D02*
X0145343Y0064012D01*
X0168532Y0066571D02*
X0168572Y0066571D01*
D21*
X0171052Y0071571D02*
X0176209Y0071571D01*
X0176209Y0061531D01*
X0171052Y0061531D01*
X0171052Y0071571D01*
X0152981Y0069012D02*
X0147824Y0069012D01*
X0147824Y0058972D01*
X0152981Y0058972D01*
X0152981Y0069012D01*
X0126406Y0069012D02*
X0126406Y0058972D01*
X0121249Y0058972D01*
X0121249Y0069012D01*
X0126406Y0069012D01*
X0087036Y0062122D02*
X0087036Y0052082D01*
X0081879Y0052082D01*
X0081879Y0062122D01*
X0087036Y0062122D01*
D22*
X0065402Y0064090D03*
M02*
