%
M48
M72
T01C0.01969
T02C0.03600
T03C0.03937
T04C0.04000
%
T01
X118926Y54169
X136643Y59090
X148454Y56137
X142548Y51216
X164202Y60074
X173454Y69917
X164202Y75823
X136643Y74838
X113020Y73854
X141564Y37437
T02
X92170Y81870
X81343Y81972
T03
X27241Y21531
X37241Y21531
X47241Y21531
X57241Y21531
X67241Y21531
X77241Y21531
X87241Y21531
X97241Y21531
X107241Y21531
X117241Y21531
X127241Y21531
X137241Y21531
X147241Y21531
X157241Y21531
X167241Y21531
X177241Y21531
X187241Y21531
X187241Y31531
X177241Y31531
X167241Y31531
X157241Y31531
X147241Y31531
X137241Y31531
X127241Y31531
X117241Y31531
X107241Y31531
X97241Y31531
X87241Y31531
X77241Y31531
X67241Y31531
X57241Y31531
X47241Y31531
X37241Y31531
X27241Y31531
X27493Y109204
X37493Y109204
X47493Y109204
X57493Y109204
X67493Y109204
X77493Y109204
X87493Y109204
X97493Y109204
X107493Y109204
X117493Y109204
X127493Y109204
X137493Y109204
X147493Y109204
X157493Y109204
X167493Y109204
X177493Y109204
X187493Y109204
X187493Y119204
X177493Y119204
X167493Y119204
X157493Y119204
X147493Y119204
X137493Y119204
X127493Y119204
X117493Y119204
X107493Y119204
X97493Y119204
X87493Y119204
X77493Y119204
X67493Y119204
X57493Y119204
X47493Y119204
X37493Y119204
X27493Y119204
T04
X57902Y79090
X57902Y69090
X57902Y59090
X57902Y49090
X134123Y87023
X144123Y87023
X154123Y87023
X191800Y77082
X178139Y48263
X168139Y48263
X158139Y48263
M30
