G75*
%MOIN*%
%OFA0B0*%
%FSLAX25Y25*%
%IPPOS*%
%LPD*%
%AMOC8*
5,1,8,0,0,1.08239X$1,22.5*
%
%ADD10OC8,0.07087*%
%ADD11C,0.07200*%
%ADD12OC8,0.10200*%
%ADD13OC8,0.08400*%
%ADD14R,0.04724X0.05118*%
%ADD15R,0.05118X0.04724*%
%ADD16R,0.04441X0.03260*%
%ADD17R,0.05500X0.03000*%
%ADD18C,0.07920*%
%ADD19C,0.04724*%
%ADD20C,0.04282*%
D10*
X0027241Y0021531D03*
X0037241Y0021531D03*
X0047241Y0021531D03*
X0057241Y0021531D03*
X0067241Y0021531D03*
X0077241Y0021531D03*
X0087241Y0021531D03*
X0097241Y0021531D03*
X0107241Y0021531D03*
X0117241Y0021531D03*
X0127241Y0021531D03*
X0137241Y0021531D03*
X0147241Y0021531D03*
X0157241Y0021531D03*
X0167241Y0021531D03*
X0177241Y0021531D03*
X0187241Y0021531D03*
X0187241Y0031531D03*
X0177241Y0031531D03*
X0167241Y0031531D03*
X0157241Y0031531D03*
X0147241Y0031531D03*
X0137241Y0031531D03*
X0127241Y0031531D03*
X0117241Y0031531D03*
X0107241Y0031531D03*
X0097241Y0031531D03*
X0087241Y0031531D03*
X0077241Y0031531D03*
X0067241Y0031531D03*
X0057241Y0031531D03*
X0047241Y0031531D03*
X0037241Y0031531D03*
X0027241Y0031531D03*
X0027493Y0109204D03*
X0037493Y0109204D03*
X0047493Y0109204D03*
X0057493Y0109204D03*
X0067493Y0109204D03*
X0077493Y0109204D03*
X0087493Y0109204D03*
X0097493Y0109204D03*
X0107493Y0109204D03*
X0117493Y0109204D03*
X0127493Y0109204D03*
X0137493Y0109204D03*
X0147493Y0109204D03*
X0157493Y0109204D03*
X0167493Y0109204D03*
X0177493Y0109204D03*
X0187493Y0109204D03*
X0187493Y0119204D03*
X0177493Y0119204D03*
X0167493Y0119204D03*
X0157493Y0119204D03*
X0147493Y0119204D03*
X0137493Y0119204D03*
X0127493Y0119204D03*
X0117493Y0119204D03*
X0107493Y0119204D03*
X0097493Y0119204D03*
X0087493Y0119204D03*
X0077493Y0119204D03*
X0067493Y0119204D03*
X0057493Y0119204D03*
X0047493Y0119204D03*
X0037493Y0119204D03*
X0027493Y0119204D03*
D11*
X0134123Y0090023D02*
X0134123Y0084023D01*
X0144123Y0084023D02*
X0144123Y0090023D01*
X0154123Y0090023D02*
X0154123Y0084023D01*
X0158139Y0051263D02*
X0158139Y0045263D01*
X0168139Y0045263D02*
X0168139Y0051263D01*
X0178139Y0051263D02*
X0178139Y0045263D01*
D12*
X0191800Y0077082D03*
D13*
X0092170Y0081870D03*
X0081343Y0081972D03*
D14*
X0072343Y0075090D03*
X0072343Y0068397D03*
X0068828Y0093834D03*
X0062135Y0093834D03*
X0051702Y0093952D03*
X0045009Y0093952D03*
X0072371Y0040252D03*
X0079064Y0040252D03*
X0169721Y0057838D03*
X0176414Y0057838D03*
X0187036Y0064602D03*
X0193729Y0064602D03*
D15*
X0188828Y0056630D03*
X0188828Y0049937D03*
X0157280Y0073468D03*
X0150587Y0073468D03*
X0169517Y0076019D03*
X0176209Y0076019D03*
X0127194Y0074838D03*
X0120501Y0074838D03*
X0094950Y0061039D03*
X0088808Y0066964D03*
X0082115Y0066964D03*
X0094950Y0054346D03*
D16*
X0089595Y0053382D03*
X0079398Y0053382D03*
X0079398Y0057122D03*
X0079398Y0060862D03*
X0089595Y0060862D03*
X0118769Y0060271D03*
X0118769Y0064012D03*
X0118769Y0067752D03*
X0128965Y0067752D03*
X0128965Y0060271D03*
X0145343Y0060271D03*
X0145343Y0064012D03*
X0145343Y0067752D03*
X0155540Y0067752D03*
X0168572Y0066571D03*
X0168572Y0070311D03*
X0178769Y0070311D03*
X0178769Y0062830D03*
X0168572Y0062830D03*
X0155540Y0060271D03*
D17*
X0196682Y0055791D03*
X0196682Y0052547D03*
X0119123Y0086602D03*
X0119123Y0089846D03*
D18*
X0057902Y0079090D03*
X0057902Y0069090D03*
X0057902Y0059090D03*
X0057902Y0049090D03*
D19*
X0013611Y0032515D03*
X0012627Y0094523D03*
X0206524Y0031531D03*
D20*
X0164202Y0060074D03*
X0148454Y0056137D03*
X0142548Y0051216D03*
X0136643Y0059090D03*
X0118926Y0054169D03*
X0141564Y0037437D03*
X0173454Y0069917D03*
X0164202Y0075823D03*
X0136643Y0074838D03*
X0113020Y0073854D03*
M02*
