G75*
%MOIN*%
%OFA0B0*%
%FSLAX25Y25*%
%IPPOS*%
%LPD*%
%AMOC8*
5,1,8,0,0,1.08239X$1,22.5*
%
%ADD10C,0.00500*%
%ADD11OC8,0.05906*%
%ADD12C,0.06000*%
%ADD13OC8,0.08500*%
%ADD14OC8,0.07000*%
%ADD15C,0.06600*%
%ADD16C,0.01600*%
%ADD17C,0.03569*%
%ADD18C,0.00787*%
%ADD19C,0.00591*%
D10*
X0010504Y0114458D02*
X0010504Y0117161D01*
X0011405Y0117161D02*
X0009603Y0117161D01*
X0012550Y0116710D02*
X0013000Y0117161D01*
X0013901Y0117161D01*
X0014352Y0116710D01*
X0014352Y0114909D01*
X0013901Y0114458D01*
X0013000Y0114458D01*
X0012550Y0114909D01*
X0012550Y0116710D01*
X0015496Y0116710D02*
X0015496Y0116260D01*
X0015947Y0115809D01*
X0017298Y0115809D01*
X0017298Y0114458D02*
X0015947Y0114458D01*
X0015496Y0114909D01*
X0015496Y0115359D01*
X0015947Y0115809D01*
X0015496Y0116710D02*
X0015947Y0117161D01*
X0017298Y0117161D01*
X0017298Y0114458D01*
D11*
X0027493Y0119204D03*
X0037493Y0119204D03*
X0047493Y0119204D03*
X0057493Y0119204D03*
X0067493Y0119204D03*
X0077493Y0119204D03*
X0087493Y0119204D03*
X0097493Y0119204D03*
X0107493Y0119204D03*
X0117493Y0119204D03*
X0127493Y0119204D03*
X0137493Y0119204D03*
X0147493Y0119204D03*
X0157493Y0119204D03*
X0167493Y0119204D03*
X0177493Y0119204D03*
X0187493Y0119204D03*
X0187493Y0109204D03*
X0177493Y0109204D03*
X0167493Y0109204D03*
X0157493Y0109204D03*
X0147493Y0109204D03*
X0137493Y0109204D03*
X0127493Y0109204D03*
X0117493Y0109204D03*
X0107493Y0109204D03*
X0097493Y0109204D03*
X0087493Y0109204D03*
X0077493Y0109204D03*
X0067493Y0109204D03*
X0057493Y0109204D03*
X0047493Y0109204D03*
X0037493Y0109204D03*
X0027493Y0109204D03*
X0027241Y0031531D03*
X0037241Y0031531D03*
X0047241Y0031531D03*
X0057241Y0031531D03*
X0067241Y0031531D03*
X0077241Y0031531D03*
X0087241Y0031531D03*
X0097241Y0031531D03*
X0107241Y0031531D03*
X0117241Y0031531D03*
X0127241Y0031531D03*
X0137241Y0031531D03*
X0147241Y0031531D03*
X0157241Y0031531D03*
X0167241Y0031531D03*
X0177241Y0031531D03*
X0187241Y0031531D03*
X0187241Y0021531D03*
X0177241Y0021531D03*
X0167241Y0021531D03*
X0157241Y0021531D03*
X0147241Y0021531D03*
X0137241Y0021531D03*
X0127241Y0021531D03*
X0117241Y0021531D03*
X0107241Y0021531D03*
X0097241Y0021531D03*
X0087241Y0021531D03*
X0077241Y0021531D03*
X0067241Y0021531D03*
X0057241Y0021531D03*
X0047241Y0021531D03*
X0037241Y0021531D03*
X0027241Y0021531D03*
D12*
X0134123Y0084023D02*
X0134123Y0090023D01*
X0144123Y0090023D02*
X0144123Y0084023D01*
X0154123Y0084023D02*
X0154123Y0090023D01*
X0158139Y0051263D02*
X0158139Y0045263D01*
X0168139Y0045263D02*
X0168139Y0051263D01*
X0178139Y0051263D02*
X0178139Y0045263D01*
D13*
X0191800Y0077082D03*
D14*
X0092170Y0081870D03*
X0081343Y0081972D03*
D15*
X0057902Y0079090D03*
X0057902Y0069090D03*
X0057902Y0059090D03*
X0057902Y0049090D03*
D16*
X0004384Y0010493D02*
X0209846Y0010493D01*
X0209846Y0127988D01*
X0004384Y0127988D01*
X0004384Y0010493D01*
X0004384Y0011225D02*
X0209846Y0011225D01*
X0209846Y0012823D02*
X0004384Y0012823D01*
X0004384Y0014422D02*
X0209846Y0014422D01*
X0209846Y0016020D02*
X0004384Y0016020D01*
X0004384Y0017619D02*
X0024432Y0017619D01*
X0025272Y0016778D02*
X0027057Y0016778D01*
X0027057Y0021347D01*
X0027425Y0021347D01*
X0027425Y0016778D01*
X0029210Y0016778D01*
X0031994Y0019563D01*
X0031994Y0021347D01*
X0027425Y0021347D01*
X0027425Y0021715D01*
X0031994Y0021715D01*
X0031994Y0023500D01*
X0029210Y0026284D01*
X0027425Y0026284D01*
X0027425Y0021716D01*
X0027057Y0021716D01*
X0027057Y0026284D01*
X0025272Y0026284D01*
X0022488Y0023500D01*
X0022488Y0021715D01*
X0027057Y0021715D01*
X0027057Y0021347D01*
X0022488Y0021347D01*
X0022488Y0019563D01*
X0025272Y0016778D01*
X0027057Y0017619D02*
X0027425Y0017619D01*
X0027425Y0019217D02*
X0027057Y0019217D01*
X0030050Y0017619D02*
X0034432Y0017619D01*
X0035272Y0016778D02*
X0037057Y0016778D01*
X0037057Y0021347D01*
X0037425Y0021347D01*
X0037425Y0016778D01*
X0039210Y0016778D01*
X0041994Y0019563D01*
X0041994Y0021347D01*
X0037425Y0021347D01*
X0037425Y0021715D01*
X0041994Y0021715D01*
X0041994Y0023500D01*
X0039210Y0026284D01*
X0037425Y0026284D01*
X0037425Y0021716D01*
X0037057Y0021716D01*
X0037057Y0026284D01*
X0035272Y0026284D01*
X0032488Y0023500D01*
X0032488Y0021715D01*
X0037057Y0021715D01*
X0037057Y0021347D01*
X0032488Y0021347D01*
X0032488Y0019563D01*
X0035272Y0016778D01*
X0037057Y0017619D02*
X0037425Y0017619D01*
X0037425Y0019217D02*
X0037057Y0019217D01*
X0040050Y0017619D02*
X0044432Y0017619D01*
X0045272Y0016778D02*
X0047057Y0016778D01*
X0047057Y0021347D01*
X0047425Y0021347D01*
X0047425Y0016778D01*
X0049210Y0016778D01*
X0051994Y0019563D01*
X0051994Y0021347D01*
X0047425Y0021347D01*
X0047425Y0021715D01*
X0051994Y0021715D01*
X0051994Y0023500D01*
X0049210Y0026284D01*
X0047425Y0026284D01*
X0047425Y0021716D01*
X0047057Y0021716D01*
X0047057Y0026284D01*
X0045272Y0026284D01*
X0042488Y0023500D01*
X0042488Y0021715D01*
X0047057Y0021715D01*
X0047057Y0021347D01*
X0042488Y0021347D01*
X0042488Y0019563D01*
X0045272Y0016778D01*
X0047057Y0017619D02*
X0047425Y0017619D01*
X0047425Y0019217D02*
X0047057Y0019217D01*
X0050050Y0017619D02*
X0054432Y0017619D01*
X0055272Y0016778D02*
X0057057Y0016778D01*
X0057057Y0021347D01*
X0057425Y0021347D01*
X0057425Y0016778D01*
X0059210Y0016778D01*
X0061994Y0019563D01*
X0061994Y0021347D01*
X0057425Y0021347D01*
X0057425Y0021715D01*
X0061994Y0021715D01*
X0061994Y0023500D01*
X0059210Y0026284D01*
X0057425Y0026284D01*
X0057425Y0021716D01*
X0057057Y0021716D01*
X0057057Y0026284D01*
X0055272Y0026284D01*
X0052488Y0023500D01*
X0052488Y0021715D01*
X0057057Y0021715D01*
X0057057Y0021347D01*
X0052488Y0021347D01*
X0052488Y0019563D01*
X0055272Y0016778D01*
X0057057Y0017619D02*
X0057425Y0017619D01*
X0057425Y0019217D02*
X0057057Y0019217D01*
X0060050Y0017619D02*
X0064432Y0017619D01*
X0065272Y0016778D02*
X0067057Y0016778D01*
X0067057Y0021347D01*
X0067425Y0021347D01*
X0067425Y0016778D01*
X0069210Y0016778D01*
X0071994Y0019563D01*
X0071994Y0021347D01*
X0067425Y0021347D01*
X0067425Y0021715D01*
X0071994Y0021715D01*
X0071994Y0023500D01*
X0069210Y0026284D01*
X0067425Y0026284D01*
X0067425Y0021716D01*
X0067057Y0021716D01*
X0067057Y0026284D01*
X0065272Y0026284D01*
X0062488Y0023500D01*
X0062488Y0021715D01*
X0067057Y0021715D01*
X0067057Y0021347D01*
X0062488Y0021347D01*
X0062488Y0019563D01*
X0065272Y0016778D01*
X0067057Y0017619D02*
X0067425Y0017619D01*
X0067425Y0019217D02*
X0067057Y0019217D01*
X0070050Y0017619D02*
X0074432Y0017619D01*
X0075272Y0016778D02*
X0077057Y0016778D01*
X0077057Y0021347D01*
X0077425Y0021347D01*
X0077425Y0016778D01*
X0079210Y0016778D01*
X0081994Y0019563D01*
X0081994Y0021347D01*
X0077425Y0021347D01*
X0077425Y0021715D01*
X0081994Y0021715D01*
X0081994Y0023500D01*
X0079210Y0026284D01*
X0077425Y0026284D01*
X0077425Y0021716D01*
X0077057Y0021716D01*
X0077057Y0026284D01*
X0075272Y0026284D01*
X0072488Y0023500D01*
X0072488Y0021715D01*
X0077057Y0021715D01*
X0077057Y0021347D01*
X0072488Y0021347D01*
X0072488Y0019563D01*
X0075272Y0016778D01*
X0077057Y0017619D02*
X0077425Y0017619D01*
X0077425Y0019217D02*
X0077057Y0019217D01*
X0080050Y0017619D02*
X0084432Y0017619D01*
X0085272Y0016778D02*
X0087057Y0016778D01*
X0087057Y0021347D01*
X0087425Y0021347D01*
X0087425Y0016778D01*
X0089210Y0016778D01*
X0091994Y0019563D01*
X0091994Y0021347D01*
X0087425Y0021347D01*
X0087425Y0021715D01*
X0091994Y0021715D01*
X0091994Y0023500D01*
X0089210Y0026284D01*
X0087425Y0026284D01*
X0087425Y0021716D01*
X0087057Y0021716D01*
X0087057Y0026284D01*
X0085272Y0026284D01*
X0082488Y0023500D01*
X0082488Y0021715D01*
X0087057Y0021715D01*
X0087057Y0021347D01*
X0082488Y0021347D01*
X0082488Y0019563D01*
X0085272Y0016778D01*
X0087057Y0017619D02*
X0087425Y0017619D01*
X0087425Y0019217D02*
X0087057Y0019217D01*
X0090050Y0017619D02*
X0094432Y0017619D01*
X0095272Y0016778D02*
X0097057Y0016778D01*
X0097057Y0021347D01*
X0097425Y0021347D01*
X0097425Y0016778D01*
X0099210Y0016778D01*
X0101994Y0019563D01*
X0101994Y0021347D01*
X0097425Y0021347D01*
X0097425Y0021715D01*
X0101994Y0021715D01*
X0101994Y0023500D01*
X0099210Y0026284D01*
X0097425Y0026284D01*
X0097425Y0021716D01*
X0097057Y0021716D01*
X0097057Y0026284D01*
X0095272Y0026284D01*
X0092488Y0023500D01*
X0092488Y0021715D01*
X0097057Y0021715D01*
X0097057Y0021347D01*
X0092488Y0021347D01*
X0092488Y0019563D01*
X0095272Y0016778D01*
X0097057Y0017619D02*
X0097425Y0017619D01*
X0097425Y0019217D02*
X0097057Y0019217D01*
X0100050Y0017619D02*
X0104432Y0017619D01*
X0105272Y0016778D02*
X0107057Y0016778D01*
X0107057Y0021347D01*
X0107425Y0021347D01*
X0107425Y0016778D01*
X0109210Y0016778D01*
X0111994Y0019563D01*
X0111994Y0021347D01*
X0107425Y0021347D01*
X0107425Y0021715D01*
X0111994Y0021715D01*
X0111994Y0023500D01*
X0109210Y0026284D01*
X0107425Y0026284D01*
X0107425Y0021716D01*
X0107057Y0021716D01*
X0107057Y0026284D01*
X0105272Y0026284D01*
X0102488Y0023500D01*
X0102488Y0021715D01*
X0107057Y0021715D01*
X0107057Y0021347D01*
X0102488Y0021347D01*
X0102488Y0019563D01*
X0105272Y0016778D01*
X0107057Y0017619D02*
X0107425Y0017619D01*
X0107425Y0019217D02*
X0107057Y0019217D01*
X0110050Y0017619D02*
X0114432Y0017619D01*
X0115272Y0016778D02*
X0117057Y0016778D01*
X0117057Y0021347D01*
X0117425Y0021347D01*
X0117425Y0016778D01*
X0119210Y0016778D01*
X0121994Y0019563D01*
X0121994Y0021347D01*
X0117425Y0021347D01*
X0117425Y0021715D01*
X0121994Y0021715D01*
X0121994Y0023500D01*
X0119210Y0026284D01*
X0117425Y0026284D01*
X0117425Y0021716D01*
X0117057Y0021716D01*
X0117057Y0026284D01*
X0115272Y0026284D01*
X0112488Y0023500D01*
X0112488Y0021715D01*
X0117057Y0021715D01*
X0117057Y0021347D01*
X0112488Y0021347D01*
X0112488Y0019563D01*
X0115272Y0016778D01*
X0117057Y0017619D02*
X0117425Y0017619D01*
X0117425Y0019217D02*
X0117057Y0019217D01*
X0120050Y0017619D02*
X0124432Y0017619D01*
X0125272Y0016778D02*
X0127057Y0016778D01*
X0127057Y0021347D01*
X0127425Y0021347D01*
X0127425Y0016778D01*
X0129210Y0016778D01*
X0131994Y0019563D01*
X0131994Y0021347D01*
X0127425Y0021347D01*
X0127425Y0021715D01*
X0131994Y0021715D01*
X0131994Y0023500D01*
X0129210Y0026284D01*
X0127425Y0026284D01*
X0127425Y0021716D01*
X0127057Y0021716D01*
X0127057Y0026284D01*
X0125272Y0026284D01*
X0122488Y0023500D01*
X0122488Y0021715D01*
X0127057Y0021715D01*
X0127057Y0021347D01*
X0122488Y0021347D01*
X0122488Y0019563D01*
X0125272Y0016778D01*
X0127057Y0017619D02*
X0127425Y0017619D01*
X0127425Y0019217D02*
X0127057Y0019217D01*
X0130050Y0017619D02*
X0134432Y0017619D01*
X0135272Y0016778D02*
X0137057Y0016778D01*
X0137057Y0021347D01*
X0137425Y0021347D01*
X0137425Y0016778D01*
X0139210Y0016778D01*
X0141994Y0019563D01*
X0141994Y0021347D01*
X0137425Y0021347D01*
X0137425Y0021715D01*
X0141994Y0021715D01*
X0141994Y0023500D01*
X0139210Y0026284D01*
X0137425Y0026284D01*
X0137425Y0021716D01*
X0137057Y0021716D01*
X0137057Y0026284D01*
X0135272Y0026284D01*
X0132488Y0023500D01*
X0132488Y0021715D01*
X0137057Y0021715D01*
X0137057Y0021347D01*
X0132488Y0021347D01*
X0132488Y0019563D01*
X0135272Y0016778D01*
X0137057Y0017619D02*
X0137425Y0017619D01*
X0137425Y0019217D02*
X0137057Y0019217D01*
X0140050Y0017619D02*
X0144432Y0017619D01*
X0145272Y0016778D02*
X0147057Y0016778D01*
X0147057Y0021347D01*
X0147425Y0021347D01*
X0147425Y0016778D01*
X0149210Y0016778D01*
X0151994Y0019563D01*
X0151994Y0021347D01*
X0147425Y0021347D01*
X0147425Y0021715D01*
X0151994Y0021715D01*
X0151994Y0023500D01*
X0150668Y0024826D01*
X0153814Y0024826D01*
X0152488Y0023500D01*
X0152488Y0021715D01*
X0157057Y0021715D01*
X0157057Y0021347D01*
X0157425Y0021347D01*
X0157425Y0016778D01*
X0159210Y0016778D01*
X0161994Y0019563D01*
X0161994Y0021347D01*
X0157425Y0021347D01*
X0157425Y0021715D01*
X0161994Y0021715D01*
X0161994Y0023500D01*
X0160668Y0024826D01*
X0161988Y0024826D01*
X0162972Y0025810D01*
X0164017Y0026855D01*
X0164017Y0028612D01*
X0165442Y0027188D01*
X0169040Y0027188D01*
X0171584Y0029732D01*
X0171584Y0033330D01*
X0169040Y0035874D01*
X0165775Y0035874D01*
X0169449Y0040161D01*
X0169923Y0040635D01*
X0169923Y0040714D01*
X0169974Y0040774D01*
X0169937Y0041256D01*
X0170626Y0041541D01*
X0171861Y0042776D01*
X0172529Y0044390D01*
X0172529Y0052137D01*
X0171861Y0053751D01*
X0170626Y0054986D01*
X0169012Y0055654D01*
X0167265Y0055654D01*
X0165652Y0054986D01*
X0164416Y0053751D01*
X0163748Y0052137D01*
X0163748Y0044390D01*
X0164416Y0042776D01*
X0165652Y0041541D01*
X0165859Y0041456D01*
X0160923Y0035697D01*
X0160449Y0035223D01*
X0160449Y0035144D01*
X0160397Y0035084D01*
X0160445Y0034470D01*
X0159040Y0035874D01*
X0155802Y0035874D01*
X0155159Y0036947D01*
X0155159Y0037191D01*
X0154792Y0037559D01*
X0154525Y0038004D01*
X0154287Y0038064D01*
X0154114Y0038237D01*
X0153594Y0038237D01*
X0153091Y0038363D01*
X0152881Y0038237D01*
X0149193Y0038237D01*
X0148353Y0039077D01*
X0144332Y0044884D01*
X0144332Y0048519D01*
X0144346Y0048525D01*
X0145239Y0049418D01*
X0145245Y0049432D01*
X0148753Y0049432D01*
X0148794Y0049396D01*
X0149485Y0049432D01*
X0150177Y0049432D01*
X0150215Y0049470D01*
X0150270Y0049473D01*
X0150733Y0049988D01*
X0151222Y0050477D01*
X0151222Y0050532D01*
X0159591Y0059830D01*
X0160080Y0060320D01*
X0160080Y0060374D01*
X0160117Y0060414D01*
X0160080Y0061106D01*
X0160080Y0105649D01*
X0161836Y0107405D01*
X0161836Y0111003D01*
X0159292Y0113547D01*
X0155694Y0113547D01*
X0153150Y0111003D01*
X0153150Y0107405D01*
X0155694Y0104861D01*
X0156512Y0104861D01*
X0156512Y0093786D01*
X0154996Y0094414D01*
X0153249Y0094414D01*
X0151636Y0093745D01*
X0150401Y0092510D01*
X0149732Y0090897D01*
X0149732Y0083150D01*
X0150401Y0081536D01*
X0151636Y0080301D01*
X0153249Y0079633D01*
X0154996Y0079633D01*
X0156512Y0080261D01*
X0156512Y0061743D01*
X0148643Y0053000D01*
X0145245Y0053000D01*
X0145239Y0053015D01*
X0144346Y0053908D01*
X0143180Y0054391D01*
X0142341Y0054391D01*
X0145317Y0057367D01*
X0145317Y0079765D01*
X0146610Y0080301D01*
X0147845Y0081536D01*
X0148513Y0083150D01*
X0148513Y0090897D01*
X0147845Y0092510D01*
X0146610Y0093745D01*
X0144996Y0094414D01*
X0143249Y0094414D01*
X0141636Y0093745D01*
X0140401Y0092510D01*
X0139732Y0090897D01*
X0139732Y0083150D01*
X0140401Y0081536D01*
X0141636Y0080301D01*
X0141748Y0080255D01*
X0141748Y0058845D01*
X0136888Y0053985D01*
X0135843Y0052940D01*
X0135843Y0035874D01*
X0135442Y0035874D01*
X0132898Y0033330D01*
X0132898Y0029732D01*
X0135442Y0027188D01*
X0139040Y0027188D01*
X0140764Y0028912D01*
X0140764Y0027839D01*
X0142732Y0025871D01*
X0143777Y0024826D01*
X0143814Y0024826D01*
X0142488Y0023500D01*
X0142488Y0021715D01*
X0147057Y0021715D01*
X0147057Y0021347D01*
X0142488Y0021347D01*
X0142488Y0019563D01*
X0145272Y0016778D01*
X0147057Y0017619D02*
X0147425Y0017619D01*
X0147425Y0019217D02*
X0147057Y0019217D01*
X0150050Y0017619D02*
X0154432Y0017619D01*
X0155272Y0016778D02*
X0157057Y0016778D01*
X0157057Y0021347D01*
X0152488Y0021347D01*
X0152488Y0019563D01*
X0155272Y0016778D01*
X0157057Y0017619D02*
X0157425Y0017619D01*
X0157425Y0019217D02*
X0157057Y0019217D01*
X0160050Y0017619D02*
X0164432Y0017619D01*
X0165272Y0016778D02*
X0167057Y0016778D01*
X0167057Y0021347D01*
X0167425Y0021347D01*
X0167425Y0016778D01*
X0169210Y0016778D01*
X0171994Y0019563D01*
X0171994Y0021347D01*
X0167425Y0021347D01*
X0167425Y0021715D01*
X0171994Y0021715D01*
X0171994Y0023500D01*
X0169210Y0026284D01*
X0167425Y0026284D01*
X0167425Y0021716D01*
X0167057Y0021716D01*
X0167057Y0026284D01*
X0165272Y0026284D01*
X0162488Y0023500D01*
X0162488Y0021715D01*
X0167057Y0021715D01*
X0167057Y0021347D01*
X0162488Y0021347D01*
X0162488Y0019563D01*
X0165272Y0016778D01*
X0167057Y0017619D02*
X0167425Y0017619D01*
X0167425Y0019217D02*
X0167057Y0019217D01*
X0170050Y0017619D02*
X0174432Y0017619D01*
X0175272Y0016778D02*
X0177057Y0016778D01*
X0177057Y0021347D01*
X0177425Y0021347D01*
X0177425Y0016778D01*
X0179210Y0016778D01*
X0181994Y0019563D01*
X0181994Y0021347D01*
X0177425Y0021347D01*
X0177425Y0021715D01*
X0181994Y0021715D01*
X0181994Y0023500D01*
X0179210Y0026284D01*
X0177425Y0026284D01*
X0177425Y0021716D01*
X0177057Y0021716D01*
X0177057Y0026284D01*
X0175272Y0026284D01*
X0172488Y0023500D01*
X0172488Y0021715D01*
X0177057Y0021715D01*
X0177057Y0021347D01*
X0172488Y0021347D01*
X0172488Y0019563D01*
X0175272Y0016778D01*
X0177057Y0017619D02*
X0177425Y0017619D01*
X0177425Y0019217D02*
X0177057Y0019217D01*
X0180050Y0017619D02*
X0184432Y0017619D01*
X0185272Y0016778D02*
X0187057Y0016778D01*
X0187057Y0021347D01*
X0187425Y0021347D01*
X0187425Y0016778D01*
X0189210Y0016778D01*
X0191994Y0019563D01*
X0191994Y0021347D01*
X0187425Y0021347D01*
X0187425Y0021715D01*
X0191994Y0021715D01*
X0191994Y0023500D01*
X0189210Y0026284D01*
X0187425Y0026284D01*
X0187425Y0021716D01*
X0187057Y0021716D01*
X0187057Y0026284D01*
X0185272Y0026284D01*
X0182488Y0023500D01*
X0182488Y0021715D01*
X0187057Y0021715D01*
X0187057Y0021347D01*
X0182488Y0021347D01*
X0182488Y0019563D01*
X0185272Y0016778D01*
X0187057Y0017619D02*
X0187425Y0017619D01*
X0187425Y0019217D02*
X0187057Y0019217D01*
X0190050Y0017619D02*
X0209846Y0017619D01*
X0209846Y0019217D02*
X0191648Y0019217D01*
X0191994Y0020816D02*
X0209846Y0020816D01*
X0209846Y0022414D02*
X0191994Y0022414D01*
X0191481Y0024013D02*
X0209846Y0024013D01*
X0209846Y0025611D02*
X0189882Y0025611D01*
X0189040Y0027188D02*
X0191584Y0029732D01*
X0191584Y0033330D01*
X0189040Y0035874D01*
X0185442Y0035874D01*
X0182898Y0033330D01*
X0182898Y0029732D01*
X0185442Y0027188D01*
X0189040Y0027188D01*
X0189062Y0027210D02*
X0209846Y0027210D01*
X0209846Y0028808D02*
X0190660Y0028808D01*
X0191584Y0030407D02*
X0209846Y0030407D01*
X0209846Y0032005D02*
X0191584Y0032005D01*
X0191311Y0033604D02*
X0209846Y0033604D01*
X0209846Y0035202D02*
X0189712Y0035202D01*
X0184770Y0035202D02*
X0179712Y0035202D01*
X0179040Y0035874D02*
X0175442Y0035874D01*
X0172898Y0033330D01*
X0172898Y0029732D01*
X0175442Y0027188D01*
X0179040Y0027188D01*
X0181584Y0029732D01*
X0181584Y0033330D01*
X0179040Y0035874D01*
X0181311Y0033604D02*
X0183171Y0033604D01*
X0182898Y0032005D02*
X0181584Y0032005D01*
X0181584Y0030407D02*
X0182898Y0030407D01*
X0183821Y0028808D02*
X0180660Y0028808D01*
X0179062Y0027210D02*
X0185420Y0027210D01*
X0184600Y0025611D02*
X0179882Y0025611D01*
X0181481Y0024013D02*
X0183001Y0024013D01*
X0182488Y0022414D02*
X0181994Y0022414D01*
X0181994Y0020816D02*
X0182488Y0020816D01*
X0182833Y0019217D02*
X0181648Y0019217D01*
X0177425Y0020816D02*
X0177057Y0020816D01*
X0177057Y0022414D02*
X0177425Y0022414D01*
X0177425Y0024013D02*
X0177057Y0024013D01*
X0177057Y0025611D02*
X0177425Y0025611D01*
X0175420Y0027210D02*
X0169062Y0027210D01*
X0169882Y0025611D02*
X0174600Y0025611D01*
X0173001Y0024013D02*
X0171481Y0024013D01*
X0171994Y0022414D02*
X0172488Y0022414D01*
X0172488Y0020816D02*
X0171994Y0020816D01*
X0171648Y0019217D02*
X0172833Y0019217D01*
X0167425Y0020816D02*
X0167057Y0020816D01*
X0167057Y0022414D02*
X0167425Y0022414D01*
X0167425Y0024013D02*
X0167057Y0024013D01*
X0167057Y0025611D02*
X0167425Y0025611D01*
X0165420Y0027210D02*
X0164017Y0027210D01*
X0164600Y0025611D02*
X0162773Y0025611D01*
X0163001Y0024013D02*
X0161481Y0024013D01*
X0161994Y0022414D02*
X0162488Y0022414D01*
X0162488Y0020816D02*
X0161994Y0020816D01*
X0161648Y0019217D02*
X0162833Y0019217D01*
X0157425Y0020816D02*
X0157057Y0020816D01*
X0152488Y0020816D02*
X0151994Y0020816D01*
X0151994Y0022414D02*
X0152488Y0022414D01*
X0153001Y0024013D02*
X0151481Y0024013D01*
X0147425Y0020816D02*
X0147057Y0020816D01*
X0142833Y0019217D02*
X0141648Y0019217D01*
X0141994Y0020816D02*
X0142488Y0020816D01*
X0142488Y0022414D02*
X0141994Y0022414D01*
X0141481Y0024013D02*
X0143001Y0024013D01*
X0142992Y0025611D02*
X0139882Y0025611D01*
X0139062Y0027210D02*
X0141393Y0027210D01*
X0140764Y0028808D02*
X0140660Y0028808D01*
X0135420Y0027210D02*
X0129062Y0027210D01*
X0129040Y0027188D02*
X0131584Y0029732D01*
X0131584Y0033330D01*
X0129040Y0035874D01*
X0128584Y0035874D01*
X0128584Y0104861D01*
X0129292Y0104861D01*
X0131836Y0107405D01*
X0131836Y0111003D01*
X0129292Y0113547D01*
X0125694Y0113547D01*
X0123150Y0111003D01*
X0123150Y0107405D01*
X0125016Y0105539D01*
X0125016Y0035448D01*
X0122898Y0033330D01*
X0122898Y0029732D01*
X0125442Y0027188D01*
X0129040Y0027188D01*
X0129882Y0025611D02*
X0134600Y0025611D01*
X0133001Y0024013D02*
X0131481Y0024013D01*
X0131994Y0022414D02*
X0132488Y0022414D01*
X0132488Y0020816D02*
X0131994Y0020816D01*
X0127425Y0020816D02*
X0127057Y0020816D01*
X0127057Y0022414D02*
X0127425Y0022414D01*
X0127425Y0024013D02*
X0127057Y0024013D01*
X0127057Y0025611D02*
X0127425Y0025611D01*
X0125420Y0027210D02*
X0119062Y0027210D01*
X0119040Y0027188D02*
X0121584Y0029732D01*
X0121584Y0033330D01*
X0119040Y0035874D01*
X0115442Y0035874D01*
X0112898Y0033330D01*
X0112898Y0029732D01*
X0115442Y0027188D01*
X0119040Y0027188D01*
X0119882Y0025611D02*
X0124600Y0025611D01*
X0123001Y0024013D02*
X0121481Y0024013D01*
X0121994Y0022414D02*
X0122488Y0022414D01*
X0122488Y0020816D02*
X0121994Y0020816D01*
X0121648Y0019217D02*
X0122833Y0019217D01*
X0117425Y0020816D02*
X0117057Y0020816D01*
X0117057Y0022414D02*
X0117425Y0022414D01*
X0117425Y0024013D02*
X0117057Y0024013D01*
X0117057Y0025611D02*
X0117425Y0025611D01*
X0115420Y0027210D02*
X0109062Y0027210D01*
X0109040Y0027188D02*
X0111584Y0029732D01*
X0111584Y0033330D01*
X0109040Y0035874D01*
X0105442Y0035874D01*
X0105368Y0035801D01*
X0104962Y0036207D01*
X0104962Y0103627D01*
X0106196Y0104861D01*
X0109292Y0104861D01*
X0111836Y0107405D01*
X0111836Y0111003D01*
X0109292Y0113547D01*
X0105694Y0113547D01*
X0103150Y0111003D01*
X0103150Y0107405D01*
X0103422Y0107133D01*
X0101394Y0105105D01*
X0101394Y0034729D01*
X0102439Y0033684D01*
X0102898Y0033225D01*
X0102898Y0029732D01*
X0105442Y0027188D01*
X0109040Y0027188D01*
X0109882Y0025611D02*
X0114600Y0025611D01*
X0113001Y0024013D02*
X0111481Y0024013D01*
X0111994Y0022414D02*
X0112488Y0022414D01*
X0112488Y0020816D02*
X0111994Y0020816D01*
X0107425Y0020816D02*
X0107057Y0020816D01*
X0107057Y0022414D02*
X0107425Y0022414D01*
X0107425Y0024013D02*
X0107057Y0024013D01*
X0107057Y0025611D02*
X0107425Y0025611D01*
X0105420Y0027210D02*
X0099062Y0027210D01*
X0099040Y0027188D02*
X0101584Y0029732D01*
X0101584Y0033330D01*
X0099057Y0035858D01*
X0099057Y0077052D01*
X0100041Y0078036D01*
X0100041Y0087388D01*
X0099057Y0088373D01*
X0099057Y0104861D01*
X0099292Y0104861D01*
X0101836Y0107405D01*
X0101836Y0111003D01*
X0099292Y0113547D01*
X0095694Y0113547D01*
X0093150Y0111003D01*
X0093150Y0107405D01*
X0095488Y0105066D01*
X0095488Y0086894D01*
X0096472Y0085910D01*
X0096472Y0084484D01*
X0094196Y0086760D01*
X0090144Y0086760D01*
X0088230Y0084846D01*
X0088230Y0086894D01*
X0089214Y0087879D01*
X0089214Y0104861D01*
X0089292Y0104861D01*
X0091836Y0107405D01*
X0091836Y0111003D01*
X0089292Y0113547D01*
X0085694Y0113547D01*
X0083150Y0111003D01*
X0083150Y0107405D01*
X0085646Y0104909D01*
X0085646Y0089357D01*
X0084661Y0088373D01*
X0084661Y0086149D01*
X0083539Y0087272D01*
X0081443Y0087272D01*
X0081443Y0082072D01*
X0081243Y0082072D01*
X0081243Y0087272D01*
X0079148Y0087272D01*
X0077403Y0085527D01*
X0077403Y0085910D01*
X0079372Y0087879D01*
X0079372Y0104940D01*
X0081836Y0107405D01*
X0081836Y0111003D01*
X0079292Y0113547D01*
X0075694Y0113547D01*
X0073150Y0111003D01*
X0073150Y0107405D01*
X0075694Y0104861D01*
X0075803Y0104861D01*
X0075803Y0089357D01*
X0074880Y0088434D01*
X0073835Y0087388D01*
X0073835Y0076068D01*
X0074880Y0075023D01*
X0075803Y0074099D01*
X0075803Y0035874D01*
X0075442Y0035874D01*
X0072898Y0033330D01*
X0072898Y0029732D01*
X0075442Y0027188D01*
X0079040Y0027188D01*
X0081584Y0029732D01*
X0081584Y0033330D01*
X0079372Y0035543D01*
X0079372Y0075577D01*
X0078326Y0076623D01*
X0077403Y0077546D01*
X0077403Y0078417D01*
X0079148Y0076672D01*
X0081243Y0076672D01*
X0081243Y0081872D01*
X0081443Y0081872D01*
X0081443Y0076672D01*
X0083539Y0076672D01*
X0084661Y0077795D01*
X0084661Y0077052D01*
X0085646Y0076068D01*
X0085646Y0035874D01*
X0085442Y0035874D01*
X0082898Y0033330D01*
X0082898Y0029732D01*
X0085442Y0027188D01*
X0089040Y0027188D01*
X0091584Y0029732D01*
X0091584Y0033330D01*
X0089214Y0035700D01*
X0089214Y0077546D01*
X0088230Y0078530D01*
X0088230Y0078894D01*
X0090144Y0076979D01*
X0094196Y0076979D01*
X0095488Y0078272D01*
X0095488Y0035874D01*
X0095442Y0035874D01*
X0092898Y0033330D01*
X0092898Y0029732D01*
X0095442Y0027188D01*
X0099040Y0027188D01*
X0099882Y0025611D02*
X0104600Y0025611D01*
X0103001Y0024013D02*
X0101481Y0024013D01*
X0101994Y0022414D02*
X0102488Y0022414D01*
X0102488Y0020816D02*
X0101994Y0020816D01*
X0101648Y0019217D02*
X0102833Y0019217D01*
X0097425Y0020816D02*
X0097057Y0020816D01*
X0097057Y0022414D02*
X0097425Y0022414D01*
X0097425Y0024013D02*
X0097057Y0024013D01*
X0097057Y0025611D02*
X0097425Y0025611D01*
X0095420Y0027210D02*
X0089062Y0027210D01*
X0089882Y0025611D02*
X0094600Y0025611D01*
X0093001Y0024013D02*
X0091481Y0024013D01*
X0091994Y0022414D02*
X0092488Y0022414D01*
X0092488Y0020816D02*
X0091994Y0020816D01*
X0087425Y0020816D02*
X0087057Y0020816D01*
X0087057Y0022414D02*
X0087425Y0022414D01*
X0087425Y0024013D02*
X0087057Y0024013D01*
X0087057Y0025611D02*
X0087425Y0025611D01*
X0085420Y0027210D02*
X0079062Y0027210D01*
X0079882Y0025611D02*
X0084600Y0025611D01*
X0083001Y0024013D02*
X0081481Y0024013D01*
X0081994Y0022414D02*
X0082488Y0022414D01*
X0082488Y0020816D02*
X0081994Y0020816D01*
X0081648Y0019217D02*
X0082833Y0019217D01*
X0077425Y0020816D02*
X0077057Y0020816D01*
X0077057Y0022414D02*
X0077425Y0022414D01*
X0077425Y0024013D02*
X0077057Y0024013D01*
X0077057Y0025611D02*
X0077425Y0025611D01*
X0075420Y0027210D02*
X0069062Y0027210D01*
X0069040Y0027188D02*
X0071584Y0029732D01*
X0071584Y0033330D01*
X0069040Y0035874D01*
X0068545Y0035874D01*
X0068545Y0104861D01*
X0069292Y0104861D01*
X0071836Y0107405D01*
X0071836Y0111003D01*
X0069292Y0113547D01*
X0065694Y0113547D01*
X0063150Y0111003D01*
X0063150Y0107405D01*
X0064976Y0105578D01*
X0064976Y0035409D01*
X0062898Y0033330D01*
X0062898Y0029732D01*
X0065442Y0027188D01*
X0069040Y0027188D01*
X0069882Y0025611D02*
X0074600Y0025611D01*
X0073001Y0024013D02*
X0071481Y0024013D01*
X0071994Y0022414D02*
X0072488Y0022414D01*
X0072488Y0020816D02*
X0071994Y0020816D01*
X0071648Y0019217D02*
X0072833Y0019217D01*
X0067425Y0020816D02*
X0067057Y0020816D01*
X0067057Y0022414D02*
X0067425Y0022414D01*
X0067425Y0024013D02*
X0067057Y0024013D01*
X0067057Y0025611D02*
X0067425Y0025611D01*
X0065420Y0027210D02*
X0059062Y0027210D01*
X0059040Y0027188D02*
X0061584Y0029732D01*
X0061584Y0033330D01*
X0059040Y0035874D01*
X0058702Y0035874D01*
X0058702Y0037191D01*
X0057657Y0038237D01*
X0053781Y0042113D01*
X0053781Y0046783D01*
X0053926Y0046433D01*
X0055245Y0045114D01*
X0056969Y0044400D01*
X0058835Y0044400D01*
X0060559Y0045114D01*
X0061879Y0046433D01*
X0062593Y0048157D01*
X0062593Y0050023D01*
X0061879Y0051747D01*
X0060559Y0053067D01*
X0058835Y0053781D01*
X0056969Y0053781D01*
X0055245Y0053067D01*
X0053926Y0051747D01*
X0053781Y0051398D01*
X0053781Y0056086D01*
X0054012Y0055768D01*
X0054580Y0055200D01*
X0055229Y0054728D01*
X0055945Y0054364D01*
X0056708Y0054116D01*
X0057501Y0053990D01*
X0057702Y0053990D01*
X0057702Y0058890D01*
X0058102Y0058890D01*
X0058102Y0053990D01*
X0058304Y0053990D01*
X0059097Y0054116D01*
X0059860Y0054364D01*
X0060575Y0054728D01*
X0061225Y0055200D01*
X0061792Y0055768D01*
X0062264Y0056417D01*
X0062629Y0057133D01*
X0062877Y0057896D01*
X0063002Y0058689D01*
X0063002Y0058890D01*
X0058102Y0058890D01*
X0058102Y0059290D01*
X0057702Y0059290D01*
X0057702Y0064190D01*
X0057702Y0068890D01*
X0058102Y0068890D01*
X0058102Y0059290D01*
X0063002Y0059290D01*
X0063002Y0059492D01*
X0062877Y0060284D01*
X0062629Y0061048D01*
X0062264Y0061763D01*
X0061792Y0062413D01*
X0061225Y0062980D01*
X0060575Y0063452D01*
X0059860Y0063817D01*
X0059097Y0064065D01*
X0058935Y0064090D01*
X0059097Y0064116D01*
X0059860Y0064364D01*
X0060575Y0064728D01*
X0061225Y0065200D01*
X0061792Y0065768D01*
X0062264Y0066417D01*
X0062629Y0067133D01*
X0062877Y0067896D01*
X0063002Y0068689D01*
X0063002Y0068890D01*
X0058102Y0068890D01*
X0058102Y0069290D01*
X0057702Y0069290D01*
X0057702Y0074190D01*
X0057501Y0074190D01*
X0056708Y0074065D01*
X0055945Y0073817D01*
X0055229Y0073452D01*
X0054580Y0072980D01*
X0054012Y0072413D01*
X0053781Y0072094D01*
X0053781Y0076783D01*
X0053926Y0076433D01*
X0055245Y0075114D01*
X0056969Y0074400D01*
X0058835Y0074400D01*
X0060559Y0075114D01*
X0061879Y0076433D01*
X0062593Y0078157D01*
X0062593Y0080023D01*
X0061879Y0081747D01*
X0060559Y0083067D01*
X0058835Y0083781D01*
X0056969Y0083781D01*
X0055245Y0083067D01*
X0053926Y0081747D01*
X0053781Y0081398D01*
X0053781Y0085910D01*
X0058702Y0090831D01*
X0058702Y0104611D01*
X0058952Y0104861D01*
X0059292Y0104861D01*
X0061836Y0107405D01*
X0061836Y0111003D01*
X0059292Y0113547D01*
X0055694Y0113547D01*
X0053150Y0111003D01*
X0053150Y0107405D01*
X0055134Y0105421D01*
X0055134Y0092310D01*
X0051258Y0088434D01*
X0050213Y0087388D01*
X0050213Y0040635D01*
X0055134Y0035713D01*
X0055134Y0035566D01*
X0052898Y0033330D01*
X0052898Y0029732D01*
X0055442Y0027188D01*
X0059040Y0027188D01*
X0059882Y0025611D02*
X0064600Y0025611D01*
X0063001Y0024013D02*
X0061481Y0024013D01*
X0061994Y0022414D02*
X0062488Y0022414D01*
X0062488Y0020816D02*
X0061994Y0020816D01*
X0061648Y0019217D02*
X0062833Y0019217D01*
X0057425Y0020816D02*
X0057057Y0020816D01*
X0057057Y0022414D02*
X0057425Y0022414D01*
X0057425Y0024013D02*
X0057057Y0024013D01*
X0057057Y0025611D02*
X0057425Y0025611D01*
X0055420Y0027210D02*
X0049062Y0027210D01*
X0049040Y0027188D02*
X0051584Y0029732D01*
X0051584Y0033330D01*
X0049040Y0035874D01*
X0045442Y0035874D01*
X0042898Y0033330D01*
X0042898Y0029732D01*
X0045442Y0027188D01*
X0049040Y0027188D01*
X0049882Y0025611D02*
X0054600Y0025611D01*
X0053001Y0024013D02*
X0051481Y0024013D01*
X0051994Y0022414D02*
X0052488Y0022414D01*
X0052488Y0020816D02*
X0051994Y0020816D01*
X0051648Y0019217D02*
X0052833Y0019217D01*
X0047425Y0020816D02*
X0047057Y0020816D01*
X0047057Y0022414D02*
X0047425Y0022414D01*
X0047425Y0024013D02*
X0047057Y0024013D01*
X0047057Y0025611D02*
X0047425Y0025611D01*
X0045420Y0027210D02*
X0039062Y0027210D01*
X0039040Y0027188D02*
X0041584Y0029732D01*
X0041584Y0033330D01*
X0039040Y0035874D01*
X0035442Y0035874D01*
X0032898Y0033330D01*
X0032898Y0029732D01*
X0035442Y0027188D01*
X0039040Y0027188D01*
X0039882Y0025611D02*
X0044600Y0025611D01*
X0043001Y0024013D02*
X0041481Y0024013D01*
X0041994Y0022414D02*
X0042488Y0022414D01*
X0042488Y0020816D02*
X0041994Y0020816D01*
X0037425Y0020816D02*
X0037057Y0020816D01*
X0037057Y0022414D02*
X0037425Y0022414D01*
X0037425Y0024013D02*
X0037057Y0024013D01*
X0037057Y0025611D02*
X0037425Y0025611D01*
X0035420Y0027210D02*
X0029062Y0027210D01*
X0029040Y0027188D02*
X0031584Y0029732D01*
X0031584Y0033330D01*
X0029040Y0035874D01*
X0025442Y0035874D01*
X0022898Y0033330D01*
X0022898Y0029732D01*
X0025442Y0027188D01*
X0029040Y0027188D01*
X0029882Y0025611D02*
X0034600Y0025611D01*
X0033001Y0024013D02*
X0031481Y0024013D01*
X0031994Y0022414D02*
X0032488Y0022414D01*
X0032488Y0020816D02*
X0031994Y0020816D01*
X0031648Y0019217D02*
X0032833Y0019217D01*
X0027425Y0020816D02*
X0027057Y0020816D01*
X0027057Y0022414D02*
X0027425Y0022414D01*
X0027425Y0024013D02*
X0027057Y0024013D01*
X0027057Y0025611D02*
X0027425Y0025611D01*
X0025420Y0027210D02*
X0004384Y0027210D01*
X0004384Y0028808D02*
X0023821Y0028808D01*
X0022898Y0030407D02*
X0004384Y0030407D01*
X0004384Y0032005D02*
X0022898Y0032005D01*
X0023171Y0033604D02*
X0004384Y0033604D01*
X0004384Y0035202D02*
X0024770Y0035202D01*
X0029712Y0035202D02*
X0034770Y0035202D01*
X0033171Y0033604D02*
X0031311Y0033604D01*
X0031584Y0032005D02*
X0032898Y0032005D01*
X0032898Y0030407D02*
X0031584Y0030407D01*
X0030660Y0028808D02*
X0033821Y0028808D01*
X0040660Y0028808D02*
X0043821Y0028808D01*
X0042898Y0030407D02*
X0041584Y0030407D01*
X0041584Y0032005D02*
X0042898Y0032005D01*
X0043171Y0033604D02*
X0041311Y0033604D01*
X0039712Y0035202D02*
X0044770Y0035202D01*
X0049712Y0035202D02*
X0054770Y0035202D01*
X0054046Y0036801D02*
X0004384Y0036801D01*
X0004384Y0038399D02*
X0052448Y0038399D01*
X0050849Y0039998D02*
X0004384Y0039998D01*
X0004384Y0041596D02*
X0050213Y0041596D01*
X0050213Y0043195D02*
X0004384Y0043195D01*
X0004384Y0044793D02*
X0050213Y0044793D01*
X0050213Y0046392D02*
X0004384Y0046392D01*
X0004384Y0047990D02*
X0050213Y0047990D01*
X0050213Y0049589D02*
X0004384Y0049589D01*
X0004384Y0051187D02*
X0050213Y0051187D01*
X0050213Y0052786D02*
X0004384Y0052786D01*
X0004384Y0054385D02*
X0050213Y0054385D01*
X0050213Y0055983D02*
X0004384Y0055983D01*
X0004384Y0057582D02*
X0050213Y0057582D01*
X0050213Y0059180D02*
X0004384Y0059180D01*
X0004384Y0060779D02*
X0050213Y0060779D01*
X0050213Y0062377D02*
X0004384Y0062377D01*
X0004384Y0063976D02*
X0050213Y0063976D01*
X0050213Y0065574D02*
X0004384Y0065574D01*
X0004384Y0067173D02*
X0050213Y0067173D01*
X0050213Y0068771D02*
X0004384Y0068771D01*
X0004384Y0070370D02*
X0050213Y0070370D01*
X0050213Y0071968D02*
X0004384Y0071968D01*
X0004384Y0073567D02*
X0050213Y0073567D01*
X0050213Y0075165D02*
X0004384Y0075165D01*
X0004384Y0076764D02*
X0050213Y0076764D01*
X0050213Y0078362D02*
X0004384Y0078362D01*
X0004384Y0079961D02*
X0050213Y0079961D01*
X0050213Y0081559D02*
X0004384Y0081559D01*
X0004384Y0083158D02*
X0050213Y0083158D01*
X0050213Y0084756D02*
X0004384Y0084756D01*
X0004384Y0086355D02*
X0050213Y0086355D01*
X0050777Y0087953D02*
X0004384Y0087953D01*
X0004384Y0089552D02*
X0052376Y0089552D01*
X0053975Y0091150D02*
X0004384Y0091150D01*
X0004384Y0092749D02*
X0055134Y0092749D01*
X0058702Y0092749D02*
X0064976Y0092749D01*
X0064976Y0091150D02*
X0058702Y0091150D01*
X0057423Y0089552D02*
X0064976Y0089552D01*
X0064976Y0087953D02*
X0055824Y0087953D01*
X0054226Y0086355D02*
X0064976Y0086355D01*
X0064976Y0084756D02*
X0053781Y0084756D01*
X0053781Y0083158D02*
X0055465Y0083158D01*
X0053848Y0081559D02*
X0053781Y0081559D01*
X0060340Y0083158D02*
X0064976Y0083158D01*
X0064976Y0081559D02*
X0061957Y0081559D01*
X0062593Y0079961D02*
X0064976Y0079961D01*
X0064976Y0078362D02*
X0062593Y0078362D01*
X0062016Y0076764D02*
X0064976Y0076764D01*
X0064976Y0075165D02*
X0060611Y0075165D01*
X0059860Y0073817D02*
X0059097Y0074065D01*
X0058304Y0074190D01*
X0058102Y0074190D01*
X0058102Y0069290D01*
X0063002Y0069290D01*
X0063002Y0069492D01*
X0062877Y0070284D01*
X0062629Y0071048D01*
X0062264Y0071763D01*
X0061792Y0072413D01*
X0061225Y0072980D01*
X0060575Y0073452D01*
X0059860Y0073817D01*
X0060351Y0073567D02*
X0064976Y0073567D01*
X0068545Y0073567D02*
X0075803Y0073567D01*
X0074880Y0075023D02*
X0074880Y0075023D01*
X0074737Y0075165D02*
X0068545Y0075165D01*
X0068545Y0076764D02*
X0073835Y0076764D01*
X0073835Y0078362D02*
X0068545Y0078362D01*
X0068545Y0079961D02*
X0073835Y0079961D01*
X0073835Y0081559D02*
X0068545Y0081559D01*
X0068545Y0083158D02*
X0073835Y0083158D01*
X0073835Y0084756D02*
X0068545Y0084756D01*
X0068545Y0086355D02*
X0073835Y0086355D01*
X0074400Y0087953D02*
X0068545Y0087953D01*
X0068545Y0089552D02*
X0075803Y0089552D01*
X0075803Y0091150D02*
X0068545Y0091150D01*
X0068545Y0092749D02*
X0075803Y0092749D01*
X0075803Y0094347D02*
X0068545Y0094347D01*
X0068545Y0095946D02*
X0075803Y0095946D01*
X0075803Y0097544D02*
X0068545Y0097544D01*
X0068545Y0099143D02*
X0075803Y0099143D01*
X0075803Y0100741D02*
X0068545Y0100741D01*
X0068545Y0102340D02*
X0075803Y0102340D01*
X0075803Y0103938D02*
X0068545Y0103938D01*
X0064976Y0103938D02*
X0058702Y0103938D01*
X0058702Y0102340D02*
X0064976Y0102340D01*
X0064976Y0100741D02*
X0058702Y0100741D01*
X0058702Y0099143D02*
X0064976Y0099143D01*
X0064976Y0097544D02*
X0058702Y0097544D01*
X0058702Y0095946D02*
X0064976Y0095946D01*
X0064976Y0094347D02*
X0058702Y0094347D01*
X0055134Y0094347D02*
X0004384Y0094347D01*
X0004384Y0095946D02*
X0055134Y0095946D01*
X0055134Y0097544D02*
X0004384Y0097544D01*
X0004384Y0099143D02*
X0055134Y0099143D01*
X0055134Y0100741D02*
X0004384Y0100741D01*
X0004384Y0102340D02*
X0055134Y0102340D01*
X0055134Y0103938D02*
X0004384Y0103938D01*
X0004384Y0105537D02*
X0025018Y0105537D01*
X0025694Y0104861D02*
X0023150Y0107405D01*
X0023150Y0111003D01*
X0025694Y0113547D01*
X0029292Y0113547D01*
X0031836Y0111003D01*
X0031836Y0107405D01*
X0029292Y0104861D01*
X0025694Y0104861D01*
X0029968Y0105537D02*
X0035018Y0105537D01*
X0035694Y0104861D02*
X0033150Y0107405D01*
X0033150Y0111003D01*
X0035694Y0113547D01*
X0039292Y0113547D01*
X0041836Y0111003D01*
X0041836Y0107405D01*
X0039292Y0104861D01*
X0035694Y0104861D01*
X0033419Y0107135D02*
X0031567Y0107135D01*
X0031836Y0108734D02*
X0033150Y0108734D01*
X0033150Y0110332D02*
X0031836Y0110332D01*
X0030908Y0111931D02*
X0034077Y0111931D01*
X0035676Y0113529D02*
X0029310Y0113529D01*
X0029462Y0114451D02*
X0027677Y0114451D01*
X0027677Y0119020D01*
X0027677Y0119388D01*
X0032246Y0119388D01*
X0032246Y0121173D01*
X0029462Y0123957D01*
X0027677Y0123957D01*
X0027677Y0119388D01*
X0027309Y0119388D01*
X0027309Y0119020D01*
X0027677Y0119020D01*
X0032246Y0119020D01*
X0032246Y0117235D01*
X0029462Y0114451D01*
X0030138Y0115128D02*
X0034848Y0115128D01*
X0035524Y0114451D02*
X0032740Y0117235D01*
X0032740Y0119020D01*
X0037309Y0119020D01*
X0037677Y0119020D01*
X0037677Y0119388D01*
X0042246Y0119388D01*
X0042246Y0121173D01*
X0039462Y0123957D01*
X0037677Y0123957D01*
X0037677Y0119388D01*
X0037309Y0119388D01*
X0037309Y0119020D01*
X0037309Y0114451D01*
X0035524Y0114451D01*
X0037309Y0115128D02*
X0037677Y0115128D01*
X0037677Y0114451D02*
X0039462Y0114451D01*
X0042246Y0117235D01*
X0042246Y0119020D01*
X0037677Y0119020D01*
X0037677Y0114451D01*
X0039310Y0113529D02*
X0045676Y0113529D01*
X0045694Y0113547D02*
X0043150Y0111003D01*
X0043150Y0107405D01*
X0045694Y0104861D01*
X0049292Y0104861D01*
X0051836Y0107405D01*
X0051836Y0111003D01*
X0049292Y0113547D01*
X0045694Y0113547D01*
X0045524Y0114451D02*
X0047309Y0114451D01*
X0047309Y0119020D01*
X0047677Y0119020D01*
X0047677Y0119388D01*
X0052246Y0119388D01*
X0052246Y0121173D01*
X0049462Y0123957D01*
X0047677Y0123957D01*
X0047677Y0119388D01*
X0047309Y0119388D01*
X0047309Y0119020D01*
X0042740Y0119020D01*
X0042740Y0117235D01*
X0045524Y0114451D01*
X0044848Y0115128D02*
X0040138Y0115128D01*
X0041737Y0116726D02*
X0043249Y0116726D01*
X0042740Y0118325D02*
X0042246Y0118325D01*
X0042740Y0119388D02*
X0047309Y0119388D01*
X0047309Y0123957D01*
X0045524Y0123957D01*
X0042740Y0121173D01*
X0042740Y0119388D01*
X0042740Y0119923D02*
X0042246Y0119923D01*
X0041896Y0121522D02*
X0043089Y0121522D01*
X0044688Y0123120D02*
X0040298Y0123120D01*
X0037677Y0123120D02*
X0037309Y0123120D01*
X0037309Y0123957D02*
X0035524Y0123957D01*
X0032740Y0121173D01*
X0032740Y0119388D01*
X0037309Y0119388D01*
X0037309Y0123957D01*
X0034688Y0123120D02*
X0030298Y0123120D01*
X0031896Y0121522D02*
X0033089Y0121522D01*
X0032740Y0119923D02*
X0032246Y0119923D01*
X0032246Y0118325D02*
X0032740Y0118325D01*
X0033249Y0116726D02*
X0031737Y0116726D01*
X0027677Y0116726D02*
X0027309Y0116726D01*
X0027309Y0115128D02*
X0027677Y0115128D01*
X0027309Y0114451D02*
X0027309Y0119020D01*
X0022740Y0119020D01*
X0022740Y0117235D01*
X0025524Y0114451D01*
X0027309Y0114451D01*
X0025676Y0113529D02*
X0018689Y0113529D01*
X0018939Y0113779D02*
X0017978Y0112818D01*
X0015940Y0112818D01*
X0015267Y0112818D01*
X0015267Y0112818D01*
X0015257Y0112828D01*
X0014924Y0113161D01*
X0014581Y0112818D01*
X0013007Y0112818D01*
X0012321Y0112818D01*
X0011870Y0113268D01*
X0011870Y0113268D01*
X0011752Y0113386D01*
X0011184Y0112818D01*
X0009825Y0112818D01*
X0008864Y0113779D01*
X0008864Y0115580D01*
X0007963Y0116481D01*
X0007963Y0117840D01*
X0008924Y0118801D01*
X0012085Y0118801D01*
X0012203Y0118683D01*
X0012321Y0118801D01*
X0013049Y0118801D01*
X0014581Y0118801D01*
X0014924Y0118458D01*
X0015267Y0118801D01*
X0015954Y0118801D01*
X0017978Y0118801D01*
X0018939Y0117840D01*
X0018939Y0116489D01*
X0018939Y0113779D01*
X0018939Y0115128D02*
X0024848Y0115128D01*
X0023249Y0116726D02*
X0018939Y0116726D01*
X0018454Y0118325D02*
X0022740Y0118325D01*
X0022740Y0119388D02*
X0027309Y0119388D01*
X0027309Y0123957D01*
X0025524Y0123957D01*
X0022740Y0121173D01*
X0022740Y0119388D01*
X0022740Y0119923D02*
X0004384Y0119923D01*
X0004384Y0118325D02*
X0008448Y0118325D01*
X0007963Y0116726D02*
X0004384Y0116726D01*
X0004384Y0115128D02*
X0008864Y0115128D01*
X0009113Y0113529D02*
X0004384Y0113529D01*
X0004384Y0111931D02*
X0024077Y0111931D01*
X0023150Y0110332D02*
X0004384Y0110332D01*
X0004384Y0108734D02*
X0023150Y0108734D01*
X0023419Y0107135D02*
X0004384Y0107135D01*
X0027309Y0118325D02*
X0027677Y0118325D01*
X0027677Y0119923D02*
X0027309Y0119923D01*
X0027309Y0121522D02*
X0027677Y0121522D01*
X0027677Y0123120D02*
X0027309Y0123120D01*
X0024688Y0123120D02*
X0004384Y0123120D01*
X0004384Y0121522D02*
X0023089Y0121522D01*
X0037309Y0121522D02*
X0037677Y0121522D01*
X0037677Y0119923D02*
X0037309Y0119923D01*
X0037309Y0118325D02*
X0037677Y0118325D01*
X0037677Y0116726D02*
X0037309Y0116726D01*
X0047309Y0116726D02*
X0047677Y0116726D01*
X0047677Y0115128D02*
X0047309Y0115128D01*
X0047677Y0114451D02*
X0049462Y0114451D01*
X0052246Y0117235D01*
X0052246Y0119020D01*
X0047677Y0119020D01*
X0047677Y0114451D01*
X0049310Y0113529D02*
X0055676Y0113529D01*
X0055524Y0114451D02*
X0057309Y0114451D01*
X0057309Y0119020D01*
X0057677Y0119020D01*
X0057677Y0119388D01*
X0062246Y0119388D01*
X0062246Y0121173D01*
X0059462Y0123957D01*
X0057677Y0123957D01*
X0057677Y0119388D01*
X0057309Y0119388D01*
X0057309Y0119020D01*
X0052740Y0119020D01*
X0052740Y0117235D01*
X0055524Y0114451D01*
X0054848Y0115128D02*
X0050138Y0115128D01*
X0051737Y0116726D02*
X0053249Y0116726D01*
X0052740Y0118325D02*
X0052246Y0118325D01*
X0052740Y0119388D02*
X0057309Y0119388D01*
X0057309Y0123957D01*
X0055524Y0123957D01*
X0052740Y0121173D01*
X0052740Y0119388D01*
X0052740Y0119923D02*
X0052246Y0119923D01*
X0051896Y0121522D02*
X0053089Y0121522D01*
X0054688Y0123120D02*
X0050298Y0123120D01*
X0047677Y0123120D02*
X0047309Y0123120D01*
X0047309Y0121522D02*
X0047677Y0121522D01*
X0047677Y0119923D02*
X0047309Y0119923D01*
X0047309Y0118325D02*
X0047677Y0118325D01*
X0057309Y0118325D02*
X0057677Y0118325D01*
X0057677Y0119020D02*
X0057677Y0114451D01*
X0059462Y0114451D01*
X0062246Y0117235D01*
X0062246Y0119020D01*
X0057677Y0119020D01*
X0057677Y0119923D02*
X0057309Y0119923D01*
X0057309Y0121522D02*
X0057677Y0121522D01*
X0057677Y0123120D02*
X0057309Y0123120D01*
X0060298Y0123120D02*
X0064688Y0123120D01*
X0065524Y0123957D02*
X0062740Y0121173D01*
X0062740Y0119388D01*
X0067309Y0119388D01*
X0067309Y0119020D01*
X0067677Y0119020D01*
X0067677Y0119388D01*
X0072246Y0119388D01*
X0072246Y0121173D01*
X0069462Y0123957D01*
X0067677Y0123957D01*
X0067677Y0119388D01*
X0067309Y0119388D01*
X0067309Y0123957D01*
X0065524Y0123957D01*
X0067309Y0123120D02*
X0067677Y0123120D01*
X0067677Y0121522D02*
X0067309Y0121522D01*
X0067309Y0119923D02*
X0067677Y0119923D01*
X0067677Y0119020D02*
X0072246Y0119020D01*
X0072246Y0117235D01*
X0069462Y0114451D01*
X0067677Y0114451D01*
X0067677Y0119020D01*
X0067309Y0119020D02*
X0067309Y0114451D01*
X0065524Y0114451D01*
X0062740Y0117235D01*
X0062740Y0119020D01*
X0067309Y0119020D01*
X0067309Y0118325D02*
X0067677Y0118325D01*
X0067677Y0116726D02*
X0067309Y0116726D01*
X0067309Y0115128D02*
X0067677Y0115128D01*
X0070138Y0115128D02*
X0074848Y0115128D01*
X0075524Y0114451D02*
X0072740Y0117235D01*
X0072740Y0119020D01*
X0077309Y0119020D01*
X0077677Y0119020D01*
X0077677Y0119388D01*
X0082246Y0119388D01*
X0082246Y0121173D01*
X0079462Y0123957D01*
X0077677Y0123957D01*
X0077677Y0119388D01*
X0077309Y0119388D01*
X0077309Y0119020D01*
X0077309Y0114451D01*
X0075524Y0114451D01*
X0075676Y0113529D02*
X0069310Y0113529D01*
X0070908Y0111931D02*
X0074077Y0111931D01*
X0073150Y0110332D02*
X0071836Y0110332D01*
X0071836Y0108734D02*
X0073150Y0108734D01*
X0073419Y0107135D02*
X0071567Y0107135D01*
X0069968Y0105537D02*
X0075018Y0105537D01*
X0079372Y0103938D02*
X0085646Y0103938D01*
X0085646Y0102340D02*
X0079372Y0102340D01*
X0079372Y0100741D02*
X0085646Y0100741D01*
X0085646Y0099143D02*
X0079372Y0099143D01*
X0079372Y0097544D02*
X0085646Y0097544D01*
X0085646Y0095946D02*
X0079372Y0095946D01*
X0079372Y0094347D02*
X0085646Y0094347D01*
X0089214Y0094347D02*
X0095488Y0094347D01*
X0095488Y0095946D02*
X0089214Y0095946D01*
X0089214Y0097544D02*
X0095488Y0097544D01*
X0095488Y0099143D02*
X0089214Y0099143D01*
X0089214Y0100741D02*
X0095488Y0100741D01*
X0095488Y0102340D02*
X0089214Y0102340D01*
X0089214Y0103938D02*
X0095488Y0103938D01*
X0095018Y0105537D02*
X0089968Y0105537D01*
X0091567Y0107135D02*
X0093419Y0107135D01*
X0093150Y0108734D02*
X0091836Y0108734D01*
X0091836Y0110332D02*
X0093150Y0110332D01*
X0094077Y0111931D02*
X0090908Y0111931D01*
X0089310Y0113529D02*
X0095676Y0113529D01*
X0095524Y0114451D02*
X0097309Y0114451D01*
X0097309Y0119020D01*
X0097677Y0119020D01*
X0097677Y0119388D01*
X0102246Y0119388D01*
X0102246Y0121173D01*
X0099462Y0123957D01*
X0097677Y0123957D01*
X0097677Y0119388D01*
X0097309Y0119388D01*
X0097309Y0119020D01*
X0092740Y0119020D01*
X0092740Y0117235D01*
X0095524Y0114451D01*
X0094848Y0115128D02*
X0090138Y0115128D01*
X0089462Y0114451D02*
X0092246Y0117235D01*
X0092246Y0119020D01*
X0087677Y0119020D01*
X0087677Y0119388D01*
X0092246Y0119388D01*
X0092246Y0121173D01*
X0089462Y0123957D01*
X0087677Y0123957D01*
X0087677Y0119388D01*
X0087309Y0119388D01*
X0087309Y0119020D01*
X0087677Y0119020D01*
X0087677Y0114451D01*
X0089462Y0114451D01*
X0087677Y0115128D02*
X0087309Y0115128D01*
X0087309Y0114451D02*
X0087309Y0119020D01*
X0082740Y0119020D01*
X0082740Y0117235D01*
X0085524Y0114451D01*
X0087309Y0114451D01*
X0085676Y0113529D02*
X0079310Y0113529D01*
X0079462Y0114451D02*
X0077677Y0114451D01*
X0077677Y0119020D01*
X0082246Y0119020D01*
X0082246Y0117235D01*
X0079462Y0114451D01*
X0080138Y0115128D02*
X0084848Y0115128D01*
X0083249Y0116726D02*
X0081737Y0116726D01*
X0082246Y0118325D02*
X0082740Y0118325D01*
X0082740Y0119388D02*
X0087309Y0119388D01*
X0087309Y0123957D01*
X0085524Y0123957D01*
X0082740Y0121173D01*
X0082740Y0119388D01*
X0082740Y0119923D02*
X0082246Y0119923D01*
X0081896Y0121522D02*
X0083089Y0121522D01*
X0084688Y0123120D02*
X0080298Y0123120D01*
X0077677Y0123120D02*
X0077309Y0123120D01*
X0077309Y0123957D02*
X0075524Y0123957D01*
X0072740Y0121173D01*
X0072740Y0119388D01*
X0077309Y0119388D01*
X0077309Y0123957D01*
X0074688Y0123120D02*
X0070298Y0123120D01*
X0071896Y0121522D02*
X0073089Y0121522D01*
X0072740Y0119923D02*
X0072246Y0119923D01*
X0072246Y0118325D02*
X0072740Y0118325D01*
X0073249Y0116726D02*
X0071737Y0116726D01*
X0077309Y0116726D02*
X0077677Y0116726D01*
X0077677Y0115128D02*
X0077309Y0115128D01*
X0077309Y0118325D02*
X0077677Y0118325D01*
X0077677Y0119923D02*
X0077309Y0119923D01*
X0077309Y0121522D02*
X0077677Y0121522D01*
X0087309Y0121522D02*
X0087677Y0121522D01*
X0087677Y0123120D02*
X0087309Y0123120D01*
X0090298Y0123120D02*
X0094688Y0123120D01*
X0095524Y0123957D02*
X0092740Y0121173D01*
X0092740Y0119388D01*
X0097309Y0119388D01*
X0097309Y0123957D01*
X0095524Y0123957D01*
X0097309Y0123120D02*
X0097677Y0123120D01*
X0097677Y0121522D02*
X0097309Y0121522D01*
X0097309Y0119923D02*
X0097677Y0119923D01*
X0097677Y0119020D02*
X0102246Y0119020D01*
X0102246Y0117235D01*
X0099462Y0114451D01*
X0097677Y0114451D01*
X0097677Y0119020D01*
X0097677Y0118325D02*
X0097309Y0118325D01*
X0097309Y0116726D02*
X0097677Y0116726D01*
X0097677Y0115128D02*
X0097309Y0115128D01*
X0100138Y0115128D02*
X0104848Y0115128D01*
X0105524Y0114451D02*
X0102740Y0117235D01*
X0102740Y0119020D01*
X0107309Y0119020D01*
X0107677Y0119020D01*
X0107677Y0119388D01*
X0112246Y0119388D01*
X0112246Y0121173D01*
X0109462Y0123957D01*
X0107677Y0123957D01*
X0107677Y0119388D01*
X0107309Y0119388D01*
X0107309Y0119020D01*
X0107309Y0114451D01*
X0105524Y0114451D01*
X0105676Y0113529D02*
X0099310Y0113529D01*
X0100908Y0111931D02*
X0104077Y0111931D01*
X0103150Y0110332D02*
X0101836Y0110332D01*
X0101836Y0108734D02*
X0103150Y0108734D01*
X0103419Y0107135D02*
X0101567Y0107135D01*
X0101826Y0105537D02*
X0099968Y0105537D01*
X0099057Y0103938D02*
X0101394Y0103938D01*
X0101394Y0102340D02*
X0099057Y0102340D01*
X0099057Y0100741D02*
X0101394Y0100741D01*
X0101394Y0099143D02*
X0099057Y0099143D01*
X0099057Y0097544D02*
X0101394Y0097544D01*
X0101394Y0095946D02*
X0099057Y0095946D01*
X0099057Y0094347D02*
X0101394Y0094347D01*
X0101394Y0092749D02*
X0099057Y0092749D01*
X0099057Y0091150D02*
X0101394Y0091150D01*
X0101394Y0089552D02*
X0099057Y0089552D01*
X0099476Y0087953D02*
X0101394Y0087953D01*
X0101394Y0086355D02*
X0100041Y0086355D01*
X0100041Y0084756D02*
X0101394Y0084756D01*
X0096472Y0084756D02*
X0096200Y0084756D01*
X0096028Y0086355D02*
X0094601Y0086355D01*
X0095488Y0087953D02*
X0089214Y0087953D01*
X0089214Y0089552D02*
X0095488Y0089552D01*
X0095488Y0091150D02*
X0089214Y0091150D01*
X0089214Y0092749D02*
X0095488Y0092749D01*
X0085646Y0092749D02*
X0079372Y0092749D01*
X0079372Y0091150D02*
X0085646Y0091150D01*
X0085646Y0089552D02*
X0079372Y0089552D01*
X0079372Y0087953D02*
X0084661Y0087953D01*
X0084661Y0086355D02*
X0084456Y0086355D01*
X0081443Y0086355D02*
X0081243Y0086355D01*
X0081243Y0084756D02*
X0081443Y0084756D01*
X0078231Y0086355D02*
X0077848Y0086355D01*
X0081243Y0083158D02*
X0081443Y0083158D01*
X0081443Y0081559D02*
X0081243Y0081559D01*
X0081243Y0079961D02*
X0081443Y0079961D01*
X0081443Y0078362D02*
X0081243Y0078362D01*
X0081243Y0076764D02*
X0081443Y0076764D01*
X0083630Y0076764D02*
X0084950Y0076764D01*
X0085646Y0075165D02*
X0079372Y0075165D01*
X0079372Y0073567D02*
X0085646Y0073567D01*
X0089214Y0073567D02*
X0095488Y0073567D01*
X0095488Y0075165D02*
X0089214Y0075165D01*
X0089214Y0076764D02*
X0095488Y0076764D01*
X0099057Y0076764D02*
X0101394Y0076764D01*
X0101394Y0078362D02*
X0100041Y0078362D01*
X0100041Y0079961D02*
X0101394Y0079961D01*
X0101394Y0081559D02*
X0100041Y0081559D01*
X0100041Y0083158D02*
X0101394Y0083158D01*
X0104962Y0083158D02*
X0125016Y0083158D01*
X0125016Y0081559D02*
X0104962Y0081559D01*
X0104962Y0079961D02*
X0125016Y0079961D01*
X0125016Y0078362D02*
X0104962Y0078362D01*
X0104962Y0076764D02*
X0125016Y0076764D01*
X0125016Y0075165D02*
X0104962Y0075165D01*
X0104962Y0073567D02*
X0125016Y0073567D01*
X0128584Y0073567D02*
X0133733Y0073567D01*
X0133951Y0073040D02*
X0133468Y0074207D01*
X0133468Y0075470D01*
X0133951Y0076637D01*
X0134844Y0077530D01*
X0136011Y0078013D01*
X0137274Y0078013D01*
X0138441Y0077530D01*
X0139334Y0076637D01*
X0139817Y0075470D01*
X0139817Y0074207D01*
X0139334Y0073040D01*
X0138441Y0072147D01*
X0138427Y0072141D01*
X0138427Y0061788D01*
X0138441Y0061782D01*
X0139334Y0060889D01*
X0139817Y0059722D01*
X0139817Y0058459D01*
X0139334Y0057292D01*
X0138441Y0056399D01*
X0137274Y0055915D01*
X0136011Y0055915D01*
X0134844Y0056399D01*
X0133951Y0057292D01*
X0133468Y0058459D01*
X0133468Y0059722D01*
X0133951Y0060889D01*
X0134844Y0061782D01*
X0134858Y0061788D01*
X0134858Y0072141D01*
X0134844Y0072147D01*
X0133951Y0073040D01*
X0134858Y0071968D02*
X0128584Y0071968D01*
X0128584Y0070370D02*
X0134858Y0070370D01*
X0134858Y0068771D02*
X0128584Y0068771D01*
X0128584Y0067173D02*
X0134858Y0067173D01*
X0134858Y0065574D02*
X0128584Y0065574D01*
X0128584Y0063976D02*
X0134858Y0063976D01*
X0134858Y0062377D02*
X0128584Y0062377D01*
X0125016Y0062377D02*
X0104962Y0062377D01*
X0104962Y0063976D02*
X0125016Y0063976D01*
X0125016Y0065574D02*
X0104962Y0065574D01*
X0104962Y0067173D02*
X0125016Y0067173D01*
X0125016Y0068771D02*
X0104962Y0068771D01*
X0104962Y0070370D02*
X0125016Y0070370D01*
X0125016Y0071968D02*
X0104962Y0071968D01*
X0101394Y0071968D02*
X0099057Y0071968D01*
X0099057Y0070370D02*
X0101394Y0070370D01*
X0101394Y0068771D02*
X0099057Y0068771D01*
X0099057Y0067173D02*
X0101394Y0067173D01*
X0101394Y0065574D02*
X0099057Y0065574D01*
X0099057Y0063976D02*
X0101394Y0063976D01*
X0101394Y0062377D02*
X0099057Y0062377D01*
X0099057Y0060779D02*
X0101394Y0060779D01*
X0101394Y0059180D02*
X0099057Y0059180D01*
X0099057Y0057582D02*
X0101394Y0057582D01*
X0101394Y0055983D02*
X0099057Y0055983D01*
X0099057Y0054385D02*
X0101394Y0054385D01*
X0101394Y0052786D02*
X0099057Y0052786D01*
X0099057Y0051187D02*
X0101394Y0051187D01*
X0101394Y0049589D02*
X0099057Y0049589D01*
X0099057Y0047990D02*
X0101394Y0047990D01*
X0101394Y0046392D02*
X0099057Y0046392D01*
X0099057Y0044793D02*
X0101394Y0044793D01*
X0101394Y0043195D02*
X0099057Y0043195D01*
X0099057Y0041596D02*
X0101394Y0041596D01*
X0101394Y0039998D02*
X0099057Y0039998D01*
X0099057Y0038399D02*
X0101394Y0038399D01*
X0101394Y0036801D02*
X0099057Y0036801D01*
X0099712Y0035202D02*
X0101394Y0035202D01*
X0101311Y0033604D02*
X0102519Y0033604D01*
X0102898Y0032005D02*
X0101584Y0032005D01*
X0101584Y0030407D02*
X0102898Y0030407D01*
X0103821Y0028808D02*
X0100660Y0028808D01*
X0093821Y0028808D02*
X0090660Y0028808D01*
X0091584Y0030407D02*
X0092898Y0030407D01*
X0092898Y0032005D02*
X0091584Y0032005D01*
X0091311Y0033604D02*
X0093171Y0033604D01*
X0094770Y0035202D02*
X0089712Y0035202D01*
X0089214Y0036801D02*
X0095488Y0036801D01*
X0095488Y0038399D02*
X0089214Y0038399D01*
X0089214Y0039998D02*
X0095488Y0039998D01*
X0095488Y0041596D02*
X0089214Y0041596D01*
X0089214Y0043195D02*
X0095488Y0043195D01*
X0095488Y0044793D02*
X0089214Y0044793D01*
X0089214Y0046392D02*
X0095488Y0046392D01*
X0095488Y0047990D02*
X0089214Y0047990D01*
X0089214Y0049589D02*
X0095488Y0049589D01*
X0095488Y0051187D02*
X0089214Y0051187D01*
X0085646Y0051187D02*
X0079372Y0051187D01*
X0079372Y0049589D02*
X0085646Y0049589D01*
X0085646Y0047990D02*
X0079372Y0047990D01*
X0079372Y0046392D02*
X0085646Y0046392D01*
X0085646Y0044793D02*
X0079372Y0044793D01*
X0079372Y0043195D02*
X0085646Y0043195D01*
X0085646Y0041596D02*
X0079372Y0041596D01*
X0079372Y0039998D02*
X0085646Y0039998D01*
X0085646Y0038399D02*
X0079372Y0038399D01*
X0079372Y0036801D02*
X0085646Y0036801D01*
X0084770Y0035202D02*
X0079712Y0035202D01*
X0081311Y0033604D02*
X0083171Y0033604D01*
X0082898Y0032005D02*
X0081584Y0032005D01*
X0081584Y0030407D02*
X0082898Y0030407D01*
X0083821Y0028808D02*
X0080660Y0028808D01*
X0073821Y0028808D02*
X0070660Y0028808D01*
X0071584Y0030407D02*
X0072898Y0030407D01*
X0072898Y0032005D02*
X0071584Y0032005D01*
X0071311Y0033604D02*
X0073171Y0033604D01*
X0074770Y0035202D02*
X0069712Y0035202D01*
X0068545Y0036801D02*
X0075803Y0036801D01*
X0075803Y0038399D02*
X0068545Y0038399D01*
X0068545Y0039998D02*
X0075803Y0039998D01*
X0075803Y0041596D02*
X0068545Y0041596D01*
X0068545Y0043195D02*
X0075803Y0043195D01*
X0075803Y0044793D02*
X0068545Y0044793D01*
X0068545Y0046392D02*
X0075803Y0046392D01*
X0075803Y0047990D02*
X0068545Y0047990D01*
X0068545Y0049589D02*
X0075803Y0049589D01*
X0075803Y0051187D02*
X0068545Y0051187D01*
X0064976Y0051187D02*
X0062111Y0051187D01*
X0062593Y0049589D02*
X0064976Y0049589D01*
X0064976Y0047990D02*
X0062524Y0047990D01*
X0061838Y0046392D02*
X0064976Y0046392D01*
X0064976Y0044793D02*
X0059786Y0044793D01*
X0056019Y0044793D02*
X0053781Y0044793D01*
X0053781Y0043195D02*
X0064976Y0043195D01*
X0064976Y0041596D02*
X0054297Y0041596D01*
X0055896Y0039998D02*
X0064976Y0039998D01*
X0064976Y0038399D02*
X0057494Y0038399D01*
X0058702Y0036801D02*
X0064976Y0036801D01*
X0064770Y0035202D02*
X0059712Y0035202D01*
X0061311Y0033604D02*
X0063171Y0033604D01*
X0062898Y0032005D02*
X0061584Y0032005D01*
X0061584Y0030407D02*
X0062898Y0030407D01*
X0063821Y0028808D02*
X0060660Y0028808D01*
X0053821Y0028808D02*
X0050660Y0028808D01*
X0051584Y0030407D02*
X0052898Y0030407D01*
X0052898Y0032005D02*
X0051584Y0032005D01*
X0051311Y0033604D02*
X0053171Y0033604D01*
X0053781Y0046392D02*
X0053967Y0046392D01*
X0053781Y0052786D02*
X0054965Y0052786D01*
X0055904Y0054385D02*
X0053781Y0054385D01*
X0053781Y0055983D02*
X0053856Y0055983D01*
X0057702Y0055983D02*
X0058102Y0055983D01*
X0058102Y0054385D02*
X0057702Y0054385D01*
X0059901Y0054385D02*
X0064976Y0054385D01*
X0064976Y0055983D02*
X0061949Y0055983D01*
X0062775Y0057582D02*
X0064976Y0057582D01*
X0064976Y0059180D02*
X0058102Y0059180D01*
X0058102Y0057582D02*
X0057702Y0057582D01*
X0057702Y0060779D02*
X0058102Y0060779D01*
X0058102Y0062377D02*
X0057702Y0062377D01*
X0057702Y0063976D02*
X0058102Y0063976D01*
X0059371Y0063976D02*
X0064976Y0063976D01*
X0064976Y0065574D02*
X0061599Y0065574D01*
X0062642Y0067173D02*
X0064976Y0067173D01*
X0064976Y0068771D02*
X0063002Y0068771D01*
X0062849Y0070370D02*
X0064976Y0070370D01*
X0064976Y0071968D02*
X0062115Y0071968D01*
X0058102Y0071968D02*
X0057702Y0071968D01*
X0057702Y0070370D02*
X0058102Y0070370D01*
X0058102Y0068771D02*
X0057702Y0068771D01*
X0057702Y0067173D02*
X0058102Y0067173D01*
X0058102Y0065574D02*
X0057702Y0065574D01*
X0061818Y0062377D02*
X0064976Y0062377D01*
X0068545Y0062377D02*
X0075803Y0062377D01*
X0075803Y0063976D02*
X0068545Y0063976D01*
X0068545Y0065574D02*
X0075803Y0065574D01*
X0075803Y0067173D02*
X0068545Y0067173D01*
X0068545Y0068771D02*
X0075803Y0068771D01*
X0075803Y0070370D02*
X0068545Y0070370D01*
X0068545Y0071968D02*
X0075803Y0071968D01*
X0079372Y0071968D02*
X0085646Y0071968D01*
X0085646Y0070370D02*
X0079372Y0070370D01*
X0079372Y0068771D02*
X0085646Y0068771D01*
X0085646Y0067173D02*
X0079372Y0067173D01*
X0079372Y0065574D02*
X0085646Y0065574D01*
X0085646Y0063976D02*
X0079372Y0063976D01*
X0079372Y0062377D02*
X0085646Y0062377D01*
X0089214Y0062377D02*
X0095488Y0062377D01*
X0095488Y0063976D02*
X0089214Y0063976D01*
X0089214Y0065574D02*
X0095488Y0065574D01*
X0095488Y0067173D02*
X0089214Y0067173D01*
X0089214Y0068771D02*
X0095488Y0068771D01*
X0095488Y0070370D02*
X0089214Y0070370D01*
X0089214Y0071968D02*
X0095488Y0071968D01*
X0099057Y0073567D02*
X0101394Y0073567D01*
X0101394Y0075165D02*
X0099057Y0075165D01*
X0088761Y0078362D02*
X0088398Y0078362D01*
X0079056Y0076764D02*
X0078185Y0076764D01*
X0078326Y0076623D02*
X0078326Y0076623D01*
X0077458Y0078362D02*
X0077403Y0078362D01*
X0088230Y0086355D02*
X0089739Y0086355D01*
X0104962Y0086355D02*
X0125016Y0086355D01*
X0125016Y0087953D02*
X0104962Y0087953D01*
X0104962Y0089552D02*
X0125016Y0089552D01*
X0125016Y0091150D02*
X0104962Y0091150D01*
X0104962Y0092749D02*
X0125016Y0092749D01*
X0128584Y0092749D02*
X0130639Y0092749D01*
X0130401Y0092510D02*
X0129732Y0090897D01*
X0129732Y0083150D01*
X0130401Y0081536D01*
X0131636Y0080301D01*
X0133249Y0079633D01*
X0134996Y0079633D01*
X0136610Y0080301D01*
X0137845Y0081536D01*
X0138513Y0083150D01*
X0138513Y0090897D01*
X0137845Y0092510D01*
X0136610Y0093745D01*
X0134996Y0094414D01*
X0133249Y0094414D01*
X0131636Y0093745D01*
X0130401Y0092510D01*
X0129837Y0091150D02*
X0128584Y0091150D01*
X0128584Y0089552D02*
X0129732Y0089552D01*
X0129732Y0087953D02*
X0128584Y0087953D01*
X0128584Y0086355D02*
X0129732Y0086355D01*
X0129732Y0084756D02*
X0128584Y0084756D01*
X0125016Y0084756D02*
X0104962Y0084756D01*
X0104962Y0094347D02*
X0125016Y0094347D01*
X0125016Y0095946D02*
X0104962Y0095946D01*
X0104962Y0097544D02*
X0125016Y0097544D01*
X0125016Y0099143D02*
X0104962Y0099143D01*
X0104962Y0100741D02*
X0125016Y0100741D01*
X0125016Y0102340D02*
X0104962Y0102340D01*
X0105274Y0103938D02*
X0125016Y0103938D01*
X0128584Y0103938D02*
X0156512Y0103938D01*
X0156512Y0102340D02*
X0128584Y0102340D01*
X0128584Y0100741D02*
X0156512Y0100741D01*
X0156512Y0099143D02*
X0128584Y0099143D01*
X0128584Y0097544D02*
X0156512Y0097544D01*
X0156512Y0095946D02*
X0128584Y0095946D01*
X0128584Y0094347D02*
X0133089Y0094347D01*
X0135157Y0094347D02*
X0143089Y0094347D01*
X0145157Y0094347D02*
X0153089Y0094347D01*
X0155157Y0094347D02*
X0156512Y0094347D01*
X0160080Y0094347D02*
X0209846Y0094347D01*
X0209846Y0095946D02*
X0160080Y0095946D01*
X0160080Y0097544D02*
X0209846Y0097544D01*
X0209846Y0099143D02*
X0160080Y0099143D01*
X0160080Y0100741D02*
X0209846Y0100741D01*
X0209846Y0102340D02*
X0160080Y0102340D01*
X0160080Y0103938D02*
X0209846Y0103938D01*
X0209846Y0105537D02*
X0189968Y0105537D01*
X0189292Y0104861D02*
X0191836Y0107405D01*
X0191836Y0111003D01*
X0189292Y0113547D01*
X0185694Y0113547D01*
X0183150Y0111003D01*
X0183150Y0107405D01*
X0185694Y0104861D01*
X0189292Y0104861D01*
X0191567Y0107135D02*
X0209846Y0107135D01*
X0209846Y0108734D02*
X0191836Y0108734D01*
X0191836Y0110332D02*
X0209846Y0110332D01*
X0209846Y0111931D02*
X0190908Y0111931D01*
X0189310Y0113529D02*
X0209846Y0113529D01*
X0209846Y0115128D02*
X0190138Y0115128D01*
X0189462Y0114451D02*
X0187677Y0114451D01*
X0187677Y0119020D01*
X0187677Y0119388D01*
X0192246Y0119388D01*
X0192246Y0121173D01*
X0189462Y0123957D01*
X0187677Y0123957D01*
X0187677Y0119388D01*
X0187309Y0119388D01*
X0187309Y0119020D01*
X0187677Y0119020D01*
X0192246Y0119020D01*
X0192246Y0117235D01*
X0189462Y0114451D01*
X0187677Y0115128D02*
X0187309Y0115128D01*
X0187309Y0114451D02*
X0185524Y0114451D01*
X0182740Y0117235D01*
X0182740Y0119020D01*
X0187309Y0119020D01*
X0187309Y0114451D01*
X0185676Y0113529D02*
X0179310Y0113529D01*
X0179292Y0113547D02*
X0175694Y0113547D01*
X0173150Y0111003D01*
X0173150Y0107405D01*
X0175694Y0104861D01*
X0179292Y0104861D01*
X0181836Y0107405D01*
X0181836Y0111003D01*
X0179292Y0113547D01*
X0179462Y0114451D02*
X0182246Y0117235D01*
X0182246Y0119020D01*
X0177677Y0119020D01*
X0177677Y0119388D01*
X0182246Y0119388D01*
X0182246Y0121173D01*
X0179462Y0123957D01*
X0177677Y0123957D01*
X0177677Y0119388D01*
X0177309Y0119388D01*
X0177309Y0119020D01*
X0177677Y0119020D01*
X0177677Y0114451D01*
X0179462Y0114451D01*
X0180138Y0115128D02*
X0184848Y0115128D01*
X0183249Y0116726D02*
X0181737Y0116726D01*
X0182246Y0118325D02*
X0182740Y0118325D01*
X0182740Y0119388D02*
X0187309Y0119388D01*
X0187309Y0123957D01*
X0185524Y0123957D01*
X0182740Y0121173D01*
X0182740Y0119388D01*
X0182740Y0119923D02*
X0182246Y0119923D01*
X0181896Y0121522D02*
X0183089Y0121522D01*
X0184688Y0123120D02*
X0180298Y0123120D01*
X0177677Y0123120D02*
X0177309Y0123120D01*
X0177309Y0123957D02*
X0175524Y0123957D01*
X0172740Y0121173D01*
X0172740Y0119388D01*
X0177309Y0119388D01*
X0177309Y0123957D01*
X0174688Y0123120D02*
X0170298Y0123120D01*
X0169462Y0123957D02*
X0167677Y0123957D01*
X0167677Y0119388D01*
X0172246Y0119388D01*
X0172246Y0121173D01*
X0169462Y0123957D01*
X0167677Y0123120D02*
X0167309Y0123120D01*
X0167309Y0123957D02*
X0165524Y0123957D01*
X0162740Y0121173D01*
X0162740Y0119388D01*
X0167309Y0119388D01*
X0167309Y0119020D01*
X0167677Y0119020D01*
X0167677Y0119388D01*
X0167309Y0119388D01*
X0167309Y0123957D01*
X0164688Y0123120D02*
X0160298Y0123120D01*
X0159462Y0123957D02*
X0157677Y0123957D01*
X0157677Y0119388D01*
X0162246Y0119388D01*
X0162246Y0121173D01*
X0159462Y0123957D01*
X0157677Y0123120D02*
X0157309Y0123120D01*
X0157309Y0123957D02*
X0155524Y0123957D01*
X0152740Y0121173D01*
X0152740Y0119388D01*
X0157309Y0119388D01*
X0157309Y0119020D01*
X0157677Y0119020D01*
X0157677Y0119388D01*
X0157309Y0119388D01*
X0157309Y0123957D01*
X0154688Y0123120D02*
X0150298Y0123120D01*
X0149462Y0123957D02*
X0147677Y0123957D01*
X0147677Y0119388D01*
X0152246Y0119388D01*
X0152246Y0121173D01*
X0149462Y0123957D01*
X0147677Y0123120D02*
X0147309Y0123120D01*
X0147309Y0123957D02*
X0145524Y0123957D01*
X0142740Y0121173D01*
X0142740Y0119388D01*
X0147309Y0119388D01*
X0147309Y0119020D01*
X0147677Y0119020D01*
X0147677Y0119388D01*
X0147309Y0119388D01*
X0147309Y0123957D01*
X0144688Y0123120D02*
X0140298Y0123120D01*
X0139462Y0123957D02*
X0137677Y0123957D01*
X0137677Y0119388D01*
X0142246Y0119388D01*
X0142246Y0121173D01*
X0139462Y0123957D01*
X0137677Y0123120D02*
X0137309Y0123120D01*
X0137309Y0123957D02*
X0135524Y0123957D01*
X0132740Y0121173D01*
X0132740Y0119388D01*
X0137309Y0119388D01*
X0137309Y0119020D01*
X0137677Y0119020D01*
X0137677Y0119388D01*
X0137309Y0119388D01*
X0137309Y0123957D01*
X0134688Y0123120D02*
X0130298Y0123120D01*
X0129462Y0123957D02*
X0127677Y0123957D01*
X0127677Y0119388D01*
X0132246Y0119388D01*
X0132246Y0121173D01*
X0129462Y0123957D01*
X0127677Y0123120D02*
X0127309Y0123120D01*
X0127309Y0123957D02*
X0125524Y0123957D01*
X0122740Y0121173D01*
X0122740Y0119388D01*
X0127309Y0119388D01*
X0127309Y0119020D01*
X0127677Y0119020D01*
X0127677Y0119388D01*
X0127309Y0119388D01*
X0127309Y0123957D01*
X0124688Y0123120D02*
X0120298Y0123120D01*
X0119462Y0123957D02*
X0117677Y0123957D01*
X0117677Y0119388D01*
X0122246Y0119388D01*
X0122246Y0121173D01*
X0119462Y0123957D01*
X0117677Y0123120D02*
X0117309Y0123120D01*
X0117309Y0123957D02*
X0115524Y0123957D01*
X0112740Y0121173D01*
X0112740Y0119388D01*
X0117309Y0119388D01*
X0117309Y0119020D01*
X0117677Y0119020D01*
X0117677Y0119388D01*
X0117309Y0119388D01*
X0117309Y0123957D01*
X0114688Y0123120D02*
X0110298Y0123120D01*
X0111896Y0121522D02*
X0113089Y0121522D01*
X0112740Y0119923D02*
X0112246Y0119923D01*
X0112246Y0119020D02*
X0107677Y0119020D01*
X0107677Y0114451D01*
X0109462Y0114451D01*
X0112246Y0117235D01*
X0112246Y0119020D01*
X0112740Y0119020D02*
X0112740Y0117235D01*
X0115524Y0114451D01*
X0117309Y0114451D01*
X0117309Y0119020D01*
X0112740Y0119020D01*
X0112740Y0118325D02*
X0112246Y0118325D01*
X0111737Y0116726D02*
X0113249Y0116726D01*
X0114848Y0115128D02*
X0110138Y0115128D01*
X0107677Y0115128D02*
X0107309Y0115128D01*
X0107309Y0116726D02*
X0107677Y0116726D01*
X0107677Y0118325D02*
X0107309Y0118325D01*
X0107309Y0119388D02*
X0102740Y0119388D01*
X0102740Y0121173D01*
X0105524Y0123957D01*
X0107309Y0123957D01*
X0107309Y0119388D01*
X0107309Y0119923D02*
X0107677Y0119923D01*
X0107677Y0121522D02*
X0107309Y0121522D01*
X0107309Y0123120D02*
X0107677Y0123120D01*
X0104688Y0123120D02*
X0100298Y0123120D01*
X0101896Y0121522D02*
X0103089Y0121522D01*
X0102740Y0119923D02*
X0102246Y0119923D01*
X0102246Y0118325D02*
X0102740Y0118325D01*
X0103249Y0116726D02*
X0101737Y0116726D01*
X0109310Y0113529D02*
X0115676Y0113529D01*
X0115694Y0113547D02*
X0113150Y0111003D01*
X0113150Y0107405D01*
X0115694Y0104861D01*
X0119292Y0104861D01*
X0121836Y0107405D01*
X0121836Y0111003D01*
X0119292Y0113547D01*
X0115694Y0113547D01*
X0117677Y0114451D02*
X0119462Y0114451D01*
X0122246Y0117235D01*
X0122246Y0119020D01*
X0117677Y0119020D01*
X0117677Y0114451D01*
X0117677Y0115128D02*
X0117309Y0115128D01*
X0117309Y0116726D02*
X0117677Y0116726D01*
X0117677Y0118325D02*
X0117309Y0118325D01*
X0117309Y0119923D02*
X0117677Y0119923D01*
X0117677Y0121522D02*
X0117309Y0121522D01*
X0121896Y0121522D02*
X0123089Y0121522D01*
X0122740Y0119923D02*
X0122246Y0119923D01*
X0122740Y0119020D02*
X0122740Y0117235D01*
X0125524Y0114451D01*
X0127309Y0114451D01*
X0127309Y0119020D01*
X0122740Y0119020D01*
X0122740Y0118325D02*
X0122246Y0118325D01*
X0121737Y0116726D02*
X0123249Y0116726D01*
X0124848Y0115128D02*
X0120138Y0115128D01*
X0119310Y0113529D02*
X0125676Y0113529D01*
X0127677Y0114451D02*
X0129462Y0114451D01*
X0132246Y0117235D01*
X0132246Y0119020D01*
X0127677Y0119020D01*
X0127677Y0114451D01*
X0127677Y0115128D02*
X0127309Y0115128D01*
X0127309Y0116726D02*
X0127677Y0116726D01*
X0127677Y0118325D02*
X0127309Y0118325D01*
X0127309Y0119923D02*
X0127677Y0119923D01*
X0127677Y0121522D02*
X0127309Y0121522D01*
X0131896Y0121522D02*
X0133089Y0121522D01*
X0132740Y0119923D02*
X0132246Y0119923D01*
X0132740Y0119020D02*
X0132740Y0117235D01*
X0135524Y0114451D01*
X0137309Y0114451D01*
X0137309Y0119020D01*
X0132740Y0119020D01*
X0132740Y0118325D02*
X0132246Y0118325D01*
X0131737Y0116726D02*
X0133249Y0116726D01*
X0134848Y0115128D02*
X0130138Y0115128D01*
X0129310Y0113529D02*
X0135676Y0113529D01*
X0135694Y0113547D02*
X0133150Y0111003D01*
X0133150Y0107405D01*
X0135694Y0104861D01*
X0139292Y0104861D01*
X0141836Y0107405D01*
X0141836Y0111003D01*
X0139292Y0113547D01*
X0135694Y0113547D01*
X0137677Y0114451D02*
X0139462Y0114451D01*
X0142246Y0117235D01*
X0142246Y0119020D01*
X0137677Y0119020D01*
X0137677Y0114451D01*
X0137677Y0115128D02*
X0137309Y0115128D01*
X0137309Y0116726D02*
X0137677Y0116726D01*
X0137677Y0118325D02*
X0137309Y0118325D01*
X0137309Y0119923D02*
X0137677Y0119923D01*
X0137677Y0121522D02*
X0137309Y0121522D01*
X0141896Y0121522D02*
X0143089Y0121522D01*
X0142740Y0119923D02*
X0142246Y0119923D01*
X0142740Y0119020D02*
X0142740Y0117235D01*
X0145524Y0114451D01*
X0147309Y0114451D01*
X0147309Y0119020D01*
X0142740Y0119020D01*
X0142740Y0118325D02*
X0142246Y0118325D01*
X0141737Y0116726D02*
X0143249Y0116726D01*
X0144848Y0115128D02*
X0140138Y0115128D01*
X0139310Y0113529D02*
X0145676Y0113529D01*
X0145694Y0113547D02*
X0143150Y0111003D01*
X0143150Y0107405D01*
X0145694Y0104861D01*
X0149292Y0104861D01*
X0151836Y0107405D01*
X0151836Y0111003D01*
X0149292Y0113547D01*
X0145694Y0113547D01*
X0147677Y0114451D02*
X0149462Y0114451D01*
X0152246Y0117235D01*
X0152246Y0119020D01*
X0147677Y0119020D01*
X0147677Y0114451D01*
X0147677Y0115128D02*
X0147309Y0115128D01*
X0147309Y0116726D02*
X0147677Y0116726D01*
X0147677Y0118325D02*
X0147309Y0118325D01*
X0147309Y0119923D02*
X0147677Y0119923D01*
X0147677Y0121522D02*
X0147309Y0121522D01*
X0151896Y0121522D02*
X0153089Y0121522D01*
X0152740Y0119923D02*
X0152246Y0119923D01*
X0152740Y0119020D02*
X0152740Y0117235D01*
X0155524Y0114451D01*
X0157309Y0114451D01*
X0157309Y0119020D01*
X0152740Y0119020D01*
X0152740Y0118325D02*
X0152246Y0118325D01*
X0151737Y0116726D02*
X0153249Y0116726D01*
X0154848Y0115128D02*
X0150138Y0115128D01*
X0149310Y0113529D02*
X0155676Y0113529D01*
X0157677Y0114451D02*
X0159462Y0114451D01*
X0162246Y0117235D01*
X0162246Y0119020D01*
X0157677Y0119020D01*
X0157677Y0114451D01*
X0157677Y0115128D02*
X0157309Y0115128D01*
X0157309Y0116726D02*
X0157677Y0116726D01*
X0157677Y0118325D02*
X0157309Y0118325D01*
X0157309Y0119923D02*
X0157677Y0119923D01*
X0157677Y0121522D02*
X0157309Y0121522D01*
X0161896Y0121522D02*
X0163089Y0121522D01*
X0162740Y0119923D02*
X0162246Y0119923D01*
X0162740Y0119020D02*
X0162740Y0117235D01*
X0165524Y0114451D01*
X0167309Y0114451D01*
X0167309Y0119020D01*
X0162740Y0119020D01*
X0162740Y0118325D02*
X0162246Y0118325D01*
X0161737Y0116726D02*
X0163249Y0116726D01*
X0164848Y0115128D02*
X0160138Y0115128D01*
X0159310Y0113529D02*
X0165676Y0113529D01*
X0165694Y0113547D02*
X0163150Y0111003D01*
X0163150Y0107405D01*
X0165694Y0104861D01*
X0169292Y0104861D01*
X0171836Y0107405D01*
X0171836Y0111003D01*
X0169292Y0113547D01*
X0165694Y0113547D01*
X0167677Y0114451D02*
X0169462Y0114451D01*
X0172246Y0117235D01*
X0172246Y0119020D01*
X0167677Y0119020D01*
X0167677Y0114451D01*
X0167677Y0115128D02*
X0167309Y0115128D01*
X0167309Y0116726D02*
X0167677Y0116726D01*
X0167677Y0118325D02*
X0167309Y0118325D01*
X0167309Y0119923D02*
X0167677Y0119923D01*
X0167677Y0121522D02*
X0167309Y0121522D01*
X0171896Y0121522D02*
X0173089Y0121522D01*
X0172740Y0119923D02*
X0172246Y0119923D01*
X0172740Y0119020D02*
X0172740Y0117235D01*
X0175524Y0114451D01*
X0177309Y0114451D01*
X0177309Y0119020D01*
X0172740Y0119020D01*
X0172740Y0118325D02*
X0172246Y0118325D01*
X0171737Y0116726D02*
X0173249Y0116726D01*
X0174848Y0115128D02*
X0170138Y0115128D01*
X0169310Y0113529D02*
X0175676Y0113529D01*
X0174077Y0111931D02*
X0170908Y0111931D01*
X0171836Y0110332D02*
X0173150Y0110332D01*
X0173150Y0108734D02*
X0171836Y0108734D01*
X0171567Y0107135D02*
X0173419Y0107135D01*
X0175018Y0105537D02*
X0169968Y0105537D01*
X0165018Y0105537D02*
X0160080Y0105537D01*
X0161567Y0107135D02*
X0163419Y0107135D01*
X0163150Y0108734D02*
X0161836Y0108734D01*
X0161836Y0110332D02*
X0163150Y0110332D01*
X0164077Y0111931D02*
X0160908Y0111931D01*
X0154077Y0111931D02*
X0150908Y0111931D01*
X0151836Y0110332D02*
X0153150Y0110332D01*
X0153150Y0108734D02*
X0151836Y0108734D01*
X0151567Y0107135D02*
X0153419Y0107135D01*
X0155018Y0105537D02*
X0149968Y0105537D01*
X0145018Y0105537D02*
X0139968Y0105537D01*
X0141567Y0107135D02*
X0143419Y0107135D01*
X0143150Y0108734D02*
X0141836Y0108734D01*
X0141836Y0110332D02*
X0143150Y0110332D01*
X0144077Y0111931D02*
X0140908Y0111931D01*
X0134077Y0111931D02*
X0130908Y0111931D01*
X0131836Y0110332D02*
X0133150Y0110332D01*
X0133150Y0108734D02*
X0131836Y0108734D01*
X0131567Y0107135D02*
X0133419Y0107135D01*
X0135018Y0105537D02*
X0129968Y0105537D01*
X0125016Y0105537D02*
X0119968Y0105537D01*
X0121567Y0107135D02*
X0123419Y0107135D01*
X0123150Y0108734D02*
X0121836Y0108734D01*
X0121836Y0110332D02*
X0123150Y0110332D01*
X0124077Y0111931D02*
X0120908Y0111931D01*
X0114077Y0111931D02*
X0110908Y0111931D01*
X0111836Y0110332D02*
X0113150Y0110332D01*
X0113150Y0108734D02*
X0111836Y0108734D01*
X0111567Y0107135D02*
X0113419Y0107135D01*
X0115018Y0105537D02*
X0109968Y0105537D01*
X0093249Y0116726D02*
X0091737Y0116726D01*
X0092246Y0118325D02*
X0092740Y0118325D01*
X0092740Y0119923D02*
X0092246Y0119923D01*
X0091896Y0121522D02*
X0093089Y0121522D01*
X0087677Y0119923D02*
X0087309Y0119923D01*
X0087309Y0118325D02*
X0087677Y0118325D01*
X0087677Y0116726D02*
X0087309Y0116726D01*
X0084077Y0111931D02*
X0080908Y0111931D01*
X0081836Y0110332D02*
X0083150Y0110332D01*
X0083150Y0108734D02*
X0081836Y0108734D01*
X0081567Y0107135D02*
X0083419Y0107135D01*
X0085018Y0105537D02*
X0079968Y0105537D01*
X0064976Y0105537D02*
X0059968Y0105537D01*
X0061567Y0107135D02*
X0063419Y0107135D01*
X0063150Y0108734D02*
X0061836Y0108734D01*
X0061836Y0110332D02*
X0063150Y0110332D01*
X0064077Y0111931D02*
X0060908Y0111931D01*
X0059310Y0113529D02*
X0065676Y0113529D01*
X0064848Y0115128D02*
X0060138Y0115128D01*
X0061737Y0116726D02*
X0063249Y0116726D01*
X0062740Y0118325D02*
X0062246Y0118325D01*
X0062246Y0119923D02*
X0062740Y0119923D01*
X0063089Y0121522D02*
X0061896Y0121522D01*
X0057677Y0116726D02*
X0057309Y0116726D01*
X0057309Y0115128D02*
X0057677Y0115128D01*
X0054077Y0111931D02*
X0050908Y0111931D01*
X0051836Y0110332D02*
X0053150Y0110332D01*
X0053150Y0108734D02*
X0051836Y0108734D01*
X0051567Y0107135D02*
X0053419Y0107135D01*
X0055018Y0105537D02*
X0049968Y0105537D01*
X0045018Y0105537D02*
X0039968Y0105537D01*
X0041567Y0107135D02*
X0043419Y0107135D01*
X0043150Y0108734D02*
X0041836Y0108734D01*
X0041836Y0110332D02*
X0043150Y0110332D01*
X0044077Y0111931D02*
X0040908Y0111931D01*
X0004384Y0124719D02*
X0209846Y0124719D01*
X0209846Y0123120D02*
X0190298Y0123120D01*
X0191896Y0121522D02*
X0209846Y0121522D01*
X0209846Y0119923D02*
X0192246Y0119923D01*
X0192246Y0118325D02*
X0209846Y0118325D01*
X0209846Y0116726D02*
X0191737Y0116726D01*
X0187677Y0116726D02*
X0187309Y0116726D01*
X0187309Y0118325D02*
X0187677Y0118325D01*
X0187677Y0119923D02*
X0187309Y0119923D01*
X0187309Y0121522D02*
X0187677Y0121522D01*
X0187677Y0123120D02*
X0187309Y0123120D01*
X0177677Y0121522D02*
X0177309Y0121522D01*
X0177309Y0119923D02*
X0177677Y0119923D01*
X0177677Y0118325D02*
X0177309Y0118325D01*
X0177309Y0116726D02*
X0177677Y0116726D01*
X0177677Y0115128D02*
X0177309Y0115128D01*
X0180908Y0111931D02*
X0184077Y0111931D01*
X0183150Y0110332D02*
X0181836Y0110332D01*
X0181836Y0108734D02*
X0183150Y0108734D01*
X0183419Y0107135D02*
X0181567Y0107135D01*
X0179968Y0105537D02*
X0185018Y0105537D01*
X0209846Y0092749D02*
X0160080Y0092749D01*
X0160080Y0091150D02*
X0209846Y0091150D01*
X0209846Y0089552D02*
X0160080Y0089552D01*
X0160080Y0087953D02*
X0209846Y0087953D01*
X0209846Y0086355D02*
X0160080Y0086355D01*
X0160080Y0084756D02*
X0209846Y0084756D01*
X0209846Y0083158D02*
X0160080Y0083158D01*
X0160080Y0081559D02*
X0188300Y0081559D01*
X0189464Y0082723D02*
X0186159Y0079419D01*
X0186159Y0074746D01*
X0189464Y0071442D01*
X0194136Y0071442D01*
X0197441Y0074746D01*
X0197441Y0079419D01*
X0194136Y0082723D01*
X0189464Y0082723D01*
X0186701Y0079961D02*
X0160080Y0079961D01*
X0160080Y0078362D02*
X0186159Y0078362D01*
X0186159Y0076764D02*
X0160080Y0076764D01*
X0160080Y0075165D02*
X0186159Y0075165D01*
X0187339Y0073567D02*
X0160080Y0073567D01*
X0156512Y0073567D02*
X0145317Y0073567D01*
X0145317Y0075165D02*
X0156512Y0075165D01*
X0156512Y0076764D02*
X0145317Y0076764D01*
X0145317Y0078362D02*
X0156512Y0078362D01*
X0156512Y0079961D02*
X0155788Y0079961D01*
X0152458Y0079961D02*
X0145788Y0079961D01*
X0147854Y0081559D02*
X0150391Y0081559D01*
X0149732Y0083158D02*
X0148513Y0083158D01*
X0148513Y0084756D02*
X0149732Y0084756D01*
X0149732Y0086355D02*
X0148513Y0086355D01*
X0148513Y0087953D02*
X0149732Y0087953D01*
X0149732Y0089552D02*
X0148513Y0089552D01*
X0148408Y0091150D02*
X0149837Y0091150D01*
X0150639Y0092749D02*
X0147607Y0092749D01*
X0140639Y0092749D02*
X0137607Y0092749D01*
X0138408Y0091150D02*
X0139837Y0091150D01*
X0139732Y0089552D02*
X0138513Y0089552D01*
X0138513Y0087953D02*
X0139732Y0087953D01*
X0139732Y0086355D02*
X0138513Y0086355D01*
X0138513Y0084756D02*
X0139732Y0084756D01*
X0139732Y0083158D02*
X0138513Y0083158D01*
X0137854Y0081559D02*
X0140391Y0081559D01*
X0141748Y0079961D02*
X0135788Y0079961D01*
X0132458Y0079961D02*
X0128584Y0079961D01*
X0128584Y0081559D02*
X0130391Y0081559D01*
X0129732Y0083158D02*
X0128584Y0083158D01*
X0128584Y0078362D02*
X0141748Y0078362D01*
X0141748Y0076764D02*
X0139207Y0076764D01*
X0139817Y0075165D02*
X0141748Y0075165D01*
X0141748Y0073567D02*
X0139552Y0073567D01*
X0138427Y0071968D02*
X0141748Y0071968D01*
X0141748Y0070370D02*
X0138427Y0070370D01*
X0138427Y0068771D02*
X0141748Y0068771D01*
X0141748Y0067173D02*
X0138427Y0067173D01*
X0138427Y0065574D02*
X0141748Y0065574D01*
X0141748Y0063976D02*
X0138427Y0063976D01*
X0138427Y0062377D02*
X0141748Y0062377D01*
X0145317Y0062377D02*
X0156512Y0062377D01*
X0156512Y0063976D02*
X0145317Y0063976D01*
X0145317Y0065574D02*
X0156512Y0065574D01*
X0156512Y0067173D02*
X0145317Y0067173D01*
X0145317Y0068771D02*
X0156512Y0068771D01*
X0156512Y0070370D02*
X0145317Y0070370D01*
X0145317Y0071968D02*
X0156512Y0071968D01*
X0160080Y0071968D02*
X0171015Y0071968D01*
X0170762Y0071715D02*
X0170279Y0070549D01*
X0170279Y0069285D01*
X0170319Y0069188D01*
X0164737Y0063249D01*
X0163570Y0063249D01*
X0162403Y0062766D01*
X0161510Y0061873D01*
X0161027Y0060706D01*
X0161027Y0059443D01*
X0161510Y0058276D01*
X0162403Y0057383D01*
X0163570Y0056900D01*
X0164833Y0056900D01*
X0166000Y0057383D01*
X0166893Y0058276D01*
X0167376Y0059443D01*
X0167376Y0060706D01*
X0167336Y0060804D01*
X0172918Y0066742D01*
X0174085Y0066742D01*
X0175252Y0067226D01*
X0176145Y0068119D01*
X0176628Y0069285D01*
X0176628Y0070549D01*
X0176145Y0071715D01*
X0175252Y0072608D01*
X0174085Y0073092D01*
X0172822Y0073092D01*
X0171655Y0072608D01*
X0170762Y0071715D01*
X0170279Y0070370D02*
X0160080Y0070370D01*
X0160080Y0068771D02*
X0169928Y0068771D01*
X0168425Y0067173D02*
X0160080Y0067173D01*
X0160080Y0065574D02*
X0166922Y0065574D01*
X0165420Y0063976D02*
X0160080Y0063976D01*
X0160080Y0062377D02*
X0162014Y0062377D01*
X0161057Y0060779D02*
X0160098Y0060779D01*
X0161136Y0059180D02*
X0159006Y0059180D01*
X0157567Y0057582D02*
X0162205Y0057582D01*
X0160626Y0054986D02*
X0159012Y0055654D01*
X0157265Y0055654D01*
X0155652Y0054986D01*
X0154416Y0053751D01*
X0153748Y0052137D01*
X0153748Y0044390D01*
X0154416Y0042776D01*
X0155652Y0041541D01*
X0157265Y0040873D01*
X0159012Y0040873D01*
X0160626Y0041541D01*
X0161861Y0042776D01*
X0162529Y0044390D01*
X0162529Y0052137D01*
X0161861Y0053751D01*
X0160626Y0054986D01*
X0161227Y0054385D02*
X0165050Y0054385D01*
X0164017Y0052786D02*
X0162260Y0052786D01*
X0162529Y0051187D02*
X0163748Y0051187D01*
X0163748Y0049589D02*
X0162529Y0049589D01*
X0162529Y0047990D02*
X0163748Y0047990D01*
X0163748Y0046392D02*
X0162529Y0046392D01*
X0162529Y0044793D02*
X0163748Y0044793D01*
X0164243Y0043195D02*
X0162034Y0043195D01*
X0160681Y0041596D02*
X0165596Y0041596D01*
X0164609Y0039998D02*
X0147715Y0039998D01*
X0149030Y0038399D02*
X0163239Y0038399D01*
X0161869Y0036801D02*
X0155247Y0036801D01*
X0159712Y0035202D02*
X0160449Y0035202D01*
X0166569Y0036801D02*
X0209846Y0036801D01*
X0209846Y0038399D02*
X0167939Y0038399D01*
X0169309Y0039998D02*
X0209846Y0039998D01*
X0209846Y0041596D02*
X0180681Y0041596D01*
X0180626Y0041541D02*
X0181861Y0042776D01*
X0182529Y0044390D01*
X0182529Y0052137D01*
X0181861Y0053751D01*
X0180626Y0054986D01*
X0179012Y0055654D01*
X0177265Y0055654D01*
X0175652Y0054986D01*
X0174416Y0053751D01*
X0173748Y0052137D01*
X0173748Y0044390D01*
X0174416Y0042776D01*
X0175652Y0041541D01*
X0177265Y0040873D01*
X0179012Y0040873D01*
X0180626Y0041541D01*
X0182034Y0043195D02*
X0209846Y0043195D01*
X0209846Y0044793D02*
X0182529Y0044793D01*
X0182529Y0046392D02*
X0209846Y0046392D01*
X0209846Y0047990D02*
X0182529Y0047990D01*
X0182529Y0049589D02*
X0209846Y0049589D01*
X0209846Y0051187D02*
X0182529Y0051187D01*
X0182260Y0052786D02*
X0209846Y0052786D01*
X0209846Y0054385D02*
X0181227Y0054385D01*
X0175050Y0054385D02*
X0171227Y0054385D01*
X0172260Y0052786D02*
X0174017Y0052786D01*
X0173748Y0051187D02*
X0172529Y0051187D01*
X0172529Y0049589D02*
X0173748Y0049589D01*
X0173748Y0047990D02*
X0172529Y0047990D01*
X0172529Y0046392D02*
X0173748Y0046392D01*
X0173748Y0044793D02*
X0172529Y0044793D01*
X0172034Y0043195D02*
X0174243Y0043195D01*
X0175596Y0041596D02*
X0170681Y0041596D01*
X0169712Y0035202D02*
X0174770Y0035202D01*
X0173171Y0033604D02*
X0171311Y0033604D01*
X0171584Y0032005D02*
X0172898Y0032005D01*
X0172898Y0030407D02*
X0171584Y0030407D01*
X0170660Y0028808D02*
X0173821Y0028808D01*
X0187057Y0025611D02*
X0187425Y0025611D01*
X0187425Y0024013D02*
X0187057Y0024013D01*
X0187057Y0022414D02*
X0187425Y0022414D01*
X0187425Y0020816D02*
X0187057Y0020816D01*
X0152833Y0019217D02*
X0151648Y0019217D01*
X0142732Y0025871D02*
X0142732Y0025871D01*
X0137425Y0025611D02*
X0137057Y0025611D01*
X0137057Y0024013D02*
X0137425Y0024013D01*
X0137425Y0022414D02*
X0137057Y0022414D01*
X0137057Y0020816D02*
X0137425Y0020816D01*
X0132833Y0019217D02*
X0131648Y0019217D01*
X0112833Y0019217D02*
X0111648Y0019217D01*
X0110660Y0028808D02*
X0113821Y0028808D01*
X0112898Y0030407D02*
X0111584Y0030407D01*
X0111584Y0032005D02*
X0112898Y0032005D01*
X0113171Y0033604D02*
X0111311Y0033604D01*
X0109712Y0035202D02*
X0114770Y0035202D01*
X0119712Y0035202D02*
X0124770Y0035202D01*
X0125016Y0036801D02*
X0104962Y0036801D01*
X0104962Y0038399D02*
X0125016Y0038399D01*
X0125016Y0039998D02*
X0104962Y0039998D01*
X0104962Y0041596D02*
X0125016Y0041596D01*
X0125016Y0043195D02*
X0104962Y0043195D01*
X0104962Y0044793D02*
X0125016Y0044793D01*
X0125016Y0046392D02*
X0104962Y0046392D01*
X0104962Y0047990D02*
X0125016Y0047990D01*
X0125016Y0049589D02*
X0104962Y0049589D01*
X0104962Y0051187D02*
X0125016Y0051187D01*
X0128584Y0051187D02*
X0135843Y0051187D01*
X0135843Y0049589D02*
X0128584Y0049589D01*
X0128584Y0047990D02*
X0135843Y0047990D01*
X0135843Y0046392D02*
X0128584Y0046392D01*
X0128584Y0044793D02*
X0135843Y0044793D01*
X0135843Y0043195D02*
X0128584Y0043195D01*
X0128584Y0041596D02*
X0135843Y0041596D01*
X0135843Y0039998D02*
X0128584Y0039998D01*
X0128584Y0038399D02*
X0135843Y0038399D01*
X0135843Y0036801D02*
X0128584Y0036801D01*
X0129712Y0035202D02*
X0134770Y0035202D01*
X0133171Y0033604D02*
X0131311Y0033604D01*
X0131584Y0032005D02*
X0132898Y0032005D01*
X0132898Y0030407D02*
X0131584Y0030407D01*
X0130660Y0028808D02*
X0133821Y0028808D01*
X0123821Y0028808D02*
X0120660Y0028808D01*
X0121584Y0030407D02*
X0122898Y0030407D01*
X0122898Y0032005D02*
X0121584Y0032005D01*
X0121311Y0033604D02*
X0123171Y0033604D01*
X0144395Y0044793D02*
X0153748Y0044793D01*
X0153748Y0046392D02*
X0144332Y0046392D01*
X0144332Y0047990D02*
X0153748Y0047990D01*
X0153748Y0049589D02*
X0150374Y0049589D01*
X0151812Y0051187D02*
X0153748Y0051187D01*
X0154017Y0052786D02*
X0153251Y0052786D01*
X0154690Y0054385D02*
X0155050Y0054385D01*
X0156128Y0055983D02*
X0209846Y0055983D01*
X0209846Y0057582D02*
X0166198Y0057582D01*
X0167267Y0059180D02*
X0209846Y0059180D01*
X0209846Y0060779D02*
X0167346Y0060779D01*
X0168815Y0062377D02*
X0209846Y0062377D01*
X0209846Y0063976D02*
X0170317Y0063976D01*
X0171820Y0065574D02*
X0209846Y0065574D01*
X0209846Y0067173D02*
X0175124Y0067173D01*
X0176415Y0068771D02*
X0209846Y0068771D01*
X0209846Y0070370D02*
X0176628Y0070370D01*
X0175892Y0071968D02*
X0188937Y0071968D01*
X0194663Y0071968D02*
X0209846Y0071968D01*
X0209846Y0073567D02*
X0196261Y0073567D01*
X0197441Y0075165D02*
X0209846Y0075165D01*
X0209846Y0076764D02*
X0197441Y0076764D01*
X0197441Y0078362D02*
X0209846Y0078362D01*
X0209846Y0079961D02*
X0196899Y0079961D01*
X0195300Y0081559D02*
X0209846Y0081559D01*
X0155643Y0060779D02*
X0145317Y0060779D01*
X0145317Y0059180D02*
X0154205Y0059180D01*
X0152766Y0057582D02*
X0145317Y0057582D01*
X0143933Y0055983D02*
X0151327Y0055983D01*
X0149889Y0054385D02*
X0143195Y0054385D01*
X0138886Y0055983D02*
X0137437Y0055983D01*
X0135848Y0055983D02*
X0128584Y0055983D01*
X0128584Y0054385D02*
X0137288Y0054385D01*
X0135843Y0052786D02*
X0128584Y0052786D01*
X0125016Y0052786D02*
X0104962Y0052786D01*
X0104962Y0054385D02*
X0125016Y0054385D01*
X0125016Y0055983D02*
X0104962Y0055983D01*
X0104962Y0057582D02*
X0125016Y0057582D01*
X0125016Y0059180D02*
X0104962Y0059180D01*
X0104962Y0060779D02*
X0125016Y0060779D01*
X0128584Y0060779D02*
X0133905Y0060779D01*
X0133468Y0059180D02*
X0128584Y0059180D01*
X0128584Y0057582D02*
X0133831Y0057582D01*
X0139454Y0057582D02*
X0140485Y0057582D01*
X0139817Y0059180D02*
X0141748Y0059180D01*
X0141748Y0060779D02*
X0139380Y0060779D01*
X0133468Y0075165D02*
X0128584Y0075165D01*
X0128584Y0076764D02*
X0134078Y0076764D01*
X0095488Y0060779D02*
X0089214Y0060779D01*
X0089214Y0059180D02*
X0095488Y0059180D01*
X0095488Y0057582D02*
X0089214Y0057582D01*
X0089214Y0055983D02*
X0095488Y0055983D01*
X0095488Y0054385D02*
X0089214Y0054385D01*
X0089214Y0052786D02*
X0095488Y0052786D01*
X0085646Y0052786D02*
X0079372Y0052786D01*
X0079372Y0054385D02*
X0085646Y0054385D01*
X0085646Y0055983D02*
X0079372Y0055983D01*
X0079372Y0057582D02*
X0085646Y0057582D01*
X0085646Y0059180D02*
X0079372Y0059180D01*
X0079372Y0060779D02*
X0085646Y0060779D01*
X0075803Y0060779D02*
X0068545Y0060779D01*
X0068545Y0059180D02*
X0075803Y0059180D01*
X0075803Y0057582D02*
X0068545Y0057582D01*
X0068545Y0055983D02*
X0075803Y0055983D01*
X0075803Y0054385D02*
X0068545Y0054385D01*
X0068545Y0052786D02*
X0075803Y0052786D01*
X0064976Y0052786D02*
X0060840Y0052786D01*
X0062716Y0060779D02*
X0064976Y0060779D01*
X0058102Y0073567D02*
X0057702Y0073567D01*
X0055454Y0073567D02*
X0053781Y0073567D01*
X0053781Y0075165D02*
X0055194Y0075165D01*
X0053789Y0076764D02*
X0053781Y0076764D01*
X0145502Y0043195D02*
X0154243Y0043195D01*
X0155596Y0041596D02*
X0146608Y0041596D01*
X0092833Y0019217D02*
X0091648Y0019217D01*
X0042833Y0019217D02*
X0041648Y0019217D01*
X0024600Y0025611D02*
X0004384Y0025611D01*
X0004384Y0024013D02*
X0023001Y0024013D01*
X0022488Y0022414D02*
X0004384Y0022414D01*
X0004384Y0020816D02*
X0022488Y0020816D01*
X0022833Y0019217D02*
X0004384Y0019217D01*
X0004384Y0126318D02*
X0209846Y0126318D01*
X0209846Y0127916D02*
X0004384Y0127916D01*
D17*
X0113020Y0073854D03*
X0136643Y0074838D03*
X0164202Y0075823D03*
X0173454Y0069917D03*
X0164202Y0060074D03*
X0148454Y0056137D03*
X0142548Y0051216D03*
X0136643Y0059090D03*
X0118926Y0054169D03*
X0141564Y0037437D03*
D18*
X0142548Y0036452D01*
X0142548Y0028578D01*
X0144517Y0026610D01*
X0161249Y0026610D01*
X0162233Y0027594D01*
X0162233Y0034484D01*
X0168139Y0041374D01*
X0168139Y0048263D01*
X0158296Y0061059D02*
X0149438Y0051216D01*
X0142548Y0051216D01*
X0142548Y0044326D01*
X0146977Y0037929D01*
X0148454Y0036452D01*
X0153375Y0036452D01*
X0156328Y0031531D01*
X0157241Y0031531D01*
X0137627Y0031531D02*
X0137241Y0031531D01*
X0137627Y0031917D01*
X0137627Y0052200D01*
X0143532Y0058106D01*
X0143532Y0088618D01*
X0143139Y0089012D01*
X0144123Y0087023D01*
X0164202Y0075823D02*
X0165186Y0070901D01*
X0173454Y0069917D02*
X0164202Y0060074D01*
X0158296Y0061059D02*
X0158296Y0108303D01*
X0127493Y0109204D02*
X0126800Y0108303D01*
X0126800Y0031531D01*
X0127241Y0031531D01*
X0107241Y0031531D02*
X0107115Y0031531D01*
X0103178Y0035468D01*
X0103178Y0104366D01*
X0107115Y0108303D01*
X0107493Y0109204D01*
X0097493Y0109204D02*
X0097272Y0108303D01*
X0097272Y0087634D01*
X0098257Y0086649D01*
X0098257Y0078775D01*
X0097272Y0077791D01*
X0097272Y0031563D01*
X0097241Y0031531D01*
X0097272Y0031531D01*
X0087430Y0031531D02*
X0087430Y0076807D01*
X0086446Y0077791D01*
X0086446Y0087634D01*
X0087430Y0088618D01*
X0087430Y0109141D01*
X0087493Y0109204D01*
X0087430Y0108303D01*
X0077587Y0108303D02*
X0077587Y0088618D01*
X0075619Y0086649D01*
X0075619Y0076807D01*
X0077587Y0074838D01*
X0077587Y0031878D01*
X0077241Y0031531D01*
X0077587Y0031531D01*
X0087241Y0031531D02*
X0087430Y0031531D01*
X0067241Y0031531D02*
X0066761Y0032012D01*
X0066761Y0108303D01*
X0067493Y0109204D01*
X0057493Y0109204D02*
X0057493Y0105925D01*
X0056918Y0105350D01*
X0056918Y0091571D01*
X0051997Y0086649D01*
X0051997Y0041374D01*
X0056918Y0036452D01*
X0056918Y0031854D01*
X0057241Y0031531D01*
X0066761Y0031531D02*
X0067241Y0031531D01*
X0116957Y0054169D02*
X0118926Y0054169D01*
X0136643Y0059090D02*
X0136643Y0074838D01*
X0113020Y0073854D02*
X0113020Y0070901D01*
X0077587Y0108303D02*
X0077493Y0109204D01*
D19*
X0157493Y0109204D02*
X0158296Y0108303D01*
X0146485Y0038421D02*
X0146977Y0037929D01*
M02*
